<svg width="92" height="83" viewBox="0 0 92 83" fill="none" xmlns="http://www.w3.org/2000/svg">
<g filter="url(#filter0_d_2014_3261)">
<path d="M38.135 27.3996V19.5996L38.819 20.3076H36.359V18.9996H39.695V27.3996H38.135Z" fill="#E10000"/>
<path d="M44.7333 27.5196C44.0373 27.5196 43.4333 27.4156 42.9213 27.2076C42.4093 26.9996 42.0133 26.7076 41.7333 26.3316C41.4533 25.9476 41.3133 25.4996 41.3133 24.9876C41.3133 24.4756 41.4493 24.0436 41.7213 23.6916C41.9933 23.3396 42.3853 23.0716 42.8973 22.8876C43.4093 22.7036 44.0213 22.6116 44.7333 22.6116C45.4453 22.6116 46.0573 22.7036 46.5693 22.8876C47.0893 23.0716 47.4853 23.3436 47.7573 23.7036C48.0373 24.0556 48.1773 24.4836 48.1773 24.9876C48.1773 25.4996 48.0333 25.9476 47.7453 26.3316C47.4653 26.7076 47.0653 26.9996 46.5453 27.2076C46.0333 27.4156 45.4293 27.5196 44.7333 27.5196ZM44.7333 26.2956C45.3093 26.2956 45.7653 26.1756 46.1013 25.9356C46.4373 25.6956 46.6053 25.3636 46.6053 24.9396C46.6053 24.5236 46.4373 24.1956 46.1013 23.9556C45.7653 23.7156 45.3093 23.5956 44.7333 23.5956C44.1573 23.5956 43.7053 23.7156 43.3773 23.9556C43.0493 24.1956 42.8853 24.5236 42.8853 24.9396C42.8853 25.3636 43.0493 25.6956 43.3773 25.9356C43.7053 26.1756 44.1573 26.2956 44.7333 26.2956ZM44.7333 23.4276C44.0853 23.4276 43.5293 23.3436 43.0653 23.1756C42.6013 22.9996 42.2413 22.7476 41.9853 22.4196C41.7373 22.0836 41.6133 21.6836 41.6133 21.2196C41.6133 20.7396 41.7413 20.3276 41.9973 19.9836C42.2613 19.6316 42.6293 19.3596 43.1013 19.1676C43.5733 18.9756 44.1173 18.8796 44.7333 18.8796C45.3573 18.8796 45.9053 18.9756 46.3773 19.1676C46.8493 19.3596 47.2173 19.6316 47.4813 19.9836C47.7453 20.3276 47.8773 20.7396 47.8773 21.2196C47.8773 21.6836 47.7493 22.0836 47.4933 22.4196C47.2453 22.7476 46.8853 22.9996 46.4133 23.1756C45.9413 23.3436 45.3813 23.4276 44.7333 23.4276ZM44.7333 22.4676C45.2293 22.4676 45.6213 22.3636 45.9093 22.1556C46.1973 21.9396 46.3413 21.6516 46.3413 21.2916C46.3413 20.9156 46.1933 20.6236 45.8973 20.4156C45.6013 20.2076 45.2133 20.1036 44.7333 20.1036C44.2533 20.1036 43.8693 20.2076 43.5813 20.4156C43.2933 20.6236 43.1493 20.9156 43.1493 21.2916C43.1493 21.6516 43.2893 21.9396 43.5693 22.1556C43.8573 22.3636 44.2453 22.4676 44.7333 22.4676Z" fill="#E10000"/>
<path d="M51.5654 25.8996V20.4996H52.8494V25.8996H51.5654ZM49.4414 23.7996V22.5996H54.9734V23.7996H49.4414Z" fill="#E10000"/>
</g>
<circle cx="45.7109" cy="23" r="15.5" stroke="#E10000"/>
<defs>
<filter id="filter0_d_2014_3261" x="-0.00462723" y="0.697821" width="91.3417" height="81.3673" filterUnits="userSpaceOnUse" color-interpolation-filters="sRGB">
<feFlood flood-opacity="0" result="BackgroundImageFix"/>
<feColorMatrix in="SourceAlpha" type="matrix" values="0 0 0 0 0 0 0 0 0 0 0 0 0 0 0 0 0 0 127 0" result="hardAlpha"/>
<feOffset dy="18.1818"/>
<feGaussianBlur stdDeviation="18.1818"/>
<feComposite in2="hardAlpha" operator="out"/>
<feColorMatrix type="matrix" values="0 0 0 0 0 0 0 0 0 0 0 0 0 0 0 0 0 0 0.25 0"/>
<feBlend mode="normal" in2="BackgroundImageFix" result="effect1_dropShadow_2014_3261"/>
<feBlend mode="normal" in="SourceGraphic" in2="effect1_dropShadow_2014_3261" result="shape"/>
</filter>
</defs>
</svg>
