<svg width="119" height="29" viewBox="0 0 119 29" fill="none" xmlns="http://www.w3.org/2000/svg">
<path d="M39 26.8562L45.1858 12.4788H47.6994L53.9048 26.8562H51.2341L45.9124 13.896H46.9335L41.6314 26.8562H39ZM41.8474 23.5289L42.5347 21.4339H49.9577L50.645 23.5289H41.8474Z" fill="black"/>
<path d="M61.3675 15.7651C62.2054 15.7651 62.9516 15.9362 63.6062 16.2786C64.2739 16.6209 64.7976 17.1481 65.1772 17.8601C65.5569 18.5584 65.7467 19.4621 65.7467 20.5712V26.8562H63.292V20.8999C63.292 19.9277 63.0695 19.202 62.6243 18.7227C62.1923 18.2435 61.5836 18.0039 60.7981 18.0039C60.222 18.0039 59.7114 18.1271 59.2663 18.3736C58.8212 18.62 58.4743 18.9897 58.2255 19.4827C57.9899 19.9619 57.8721 20.5712 57.8721 21.3107V26.8562H55.4174V15.8883H57.7542V18.846L57.3419 17.9422C57.7084 17.2439 58.2386 16.7099 58.9325 16.3402C59.6394 15.9568 60.4511 15.7651 61.3675 15.7651Z" fill="black"/>
<path d="M73.3179 27C72.3098 27 71.3999 26.7672 70.5883 26.3017C69.7897 25.8224 69.1613 25.1652 68.7031 24.3299C68.2449 23.4947 68.0157 22.5088 68.0157 21.3723C68.0157 20.2358 68.2449 19.2499 68.7031 18.4146C69.1613 17.5794 69.7897 16.929 70.5883 16.4634C71.3999 15.9979 72.3098 15.7651 73.3179 15.7651C74.195 15.7651 74.9805 15.9705 75.6744 16.3813C76.3682 16.7783 76.9181 17.3877 77.3239 18.2092C77.7298 19.0308 77.9327 20.0852 77.9327 21.3723C77.9327 22.6457 77.7363 23.7 77.3435 24.5353C76.9508 25.3569 76.4075 25.973 75.7136 26.3838C75.0198 26.7946 74.2212 27 73.3179 27ZM73.6124 24.8023C74.2016 24.8023 74.7252 24.6654 75.1834 24.3915C75.6547 24.1177 76.0278 23.7206 76.3028 23.2003C76.5908 22.6799 76.7348 22.0706 76.7348 21.3723C76.7348 20.6602 76.5908 20.0509 76.3028 19.5443C76.0278 19.024 75.6547 18.6269 75.1834 18.353C74.7252 18.0792 74.2016 17.9422 73.6124 17.9422C73.0233 17.9422 72.4931 18.0792 72.0218 18.353C71.5636 18.6269 71.1905 19.024 70.9025 19.5443C70.6275 20.0509 70.4901 20.6602 70.4901 21.3723C70.4901 22.0706 70.6275 22.6799 70.9025 23.2003C71.1905 23.7206 71.5636 24.1177 72.0218 24.3915C72.4931 24.6654 73.0233 24.8023 73.6124 24.8023ZM76.7937 26.8562V24.2683L76.8919 21.3517L76.6955 18.4352V11.6162H79.1306V26.8562H76.7937Z" fill="black"/>
<path d="M82.3614 26.8562V15.8883H84.6982V18.9076L84.4233 18.0244C84.7375 17.285 85.2285 16.7236 85.8961 16.3402C86.5769 15.9568 87.4213 15.7651 88.4294 15.7651V18.2092C88.3246 18.1819 88.2264 18.1682 88.1348 18.1682C88.0432 18.1545 87.9515 18.1476 87.8599 18.1476C86.9304 18.1476 86.1907 18.4352 85.6408 19.0103C85.091 19.5717 84.8161 20.4138 84.8161 21.5366V26.8562H82.3614Z" fill="black"/>
<path d="M95.1288 27C94.0553 27 93.0996 26.7604 92.2617 26.2811C91.4239 25.7882 90.7627 25.1172 90.2784 24.2683C89.794 23.4193 89.5518 22.454 89.5518 21.3723C89.5518 20.2769 89.794 19.3115 90.2784 18.4763C90.7627 17.6273 91.4239 16.9632 92.2617 16.484C93.0996 16.0047 94.0553 15.7651 95.1288 15.7651C96.2154 15.7651 97.1777 16.0047 98.0155 16.484C98.8665 16.9632 99.5276 17.6205 99.9989 18.4557C100.483 19.291 100.725 20.2632 100.725 21.3723C100.725 22.454 100.483 23.4193 99.9989 24.2683C99.5276 25.1172 98.8665 25.7882 98.0155 26.2811C97.1777 26.7604 96.2154 27 95.1288 27ZM95.1288 24.8023C95.731 24.8023 96.2678 24.6654 96.7391 24.3915C97.2104 24.1177 97.577 23.7206 97.8388 23.2003C98.1137 22.6799 98.2512 22.0706 98.2512 21.3723C98.2512 20.6602 98.1137 20.0509 97.8388 19.5443C97.577 19.024 97.2104 18.6269 96.7391 18.353C96.2678 18.0792 95.7376 17.9422 95.1484 17.9422C94.5462 17.9422 94.0095 18.0792 93.5382 18.353C93.08 18.6269 92.7134 19.024 92.4385 19.5443C92.1636 20.0509 92.0261 20.6602 92.0261 21.3723C92.0261 22.0706 92.1636 22.6799 92.4385 23.2003C92.7134 23.7206 93.08 24.1177 93.5382 24.3915C94.0095 24.6654 94.5397 24.8023 95.1288 24.8023Z" fill="black"/>
<path d="M103.073 26.8562V15.8883H105.527V26.8562H103.073ZM104.31 14.0809C103.852 14.0809 103.472 13.9303 103.171 13.629C102.883 13.3278 102.739 12.9649 102.739 12.5404C102.739 12.1023 102.883 11.7394 103.171 11.4519C103.472 11.1506 103.852 11 104.31 11C104.768 11 105.141 11.1438 105.429 11.4313C105.73 11.7052 105.881 12.0543 105.881 12.4788C105.881 12.9307 105.737 13.3141 105.449 13.629C105.161 13.9303 104.781 14.0809 104.31 14.0809Z" fill="black"/>
<path d="M113.187 27C112.179 27 111.269 26.7672 110.458 26.3017C109.659 25.8224 109.031 25.1652 108.573 24.3299C108.114 23.4947 107.885 22.5088 107.885 21.3723C107.885 20.2358 108.114 19.2499 108.573 18.4146C109.031 17.5794 109.659 16.929 110.458 16.4634C111.269 15.9979 112.179 15.7651 113.187 15.7651C114.064 15.7651 114.85 15.9705 115.544 16.3813C116.238 16.7783 116.788 17.3877 117.193 18.2092C117.599 19.0308 117.802 20.0852 117.802 21.3723C117.802 22.6457 117.606 23.7 117.213 24.5353C116.82 25.3569 116.277 25.973 115.583 26.3838C114.889 26.7946 114.091 27 113.187 27ZM113.482 24.8023C114.071 24.8023 114.595 24.6654 115.053 24.3915C115.524 24.1177 115.897 23.7206 116.172 23.2003C116.46 22.6799 116.604 22.0706 116.604 21.3723C116.604 20.6602 116.46 20.0509 116.172 19.5443C115.897 19.024 115.524 18.6269 115.053 18.353C114.595 18.0792 114.071 17.9422 113.482 17.9422C112.893 17.9422 112.363 18.0792 111.891 18.353C111.433 18.6269 111.06 19.024 110.772 19.5443C110.497 20.0509 110.36 20.6602 110.36 21.3723C110.36 22.0706 110.497 22.6799 110.772 23.2003C111.06 23.7206 111.433 24.1177 111.891 24.3915C112.363 24.6654 112.893 24.8023 113.482 24.8023ZM116.663 26.8562V24.2683L116.761 21.3517L116.565 18.4352V11.6162H119V26.8562H116.663Z" fill="black"/>
<g clip-path="url(#clip0_2014_3277)">
<path d="M7.28841 0.0702816C7.01394 0.219975 6.91516 0.560655 7.06726 0.830791L10.1608 6.32383C10.3129 6.59397 10.659 6.69118 10.9335 6.54149C11.208 6.3918 11.3068 6.05112 11.1547 5.78098L8.06027 0.287939C7.90817 0.017803 7.56202 -0.0794114 7.28754 0.0702816H7.28841Z" fill="#A4C639"/>
<path d="M22.9021 9.21277C21.7439 9.21277 20.8042 10.1376 20.8042 11.2775V18.5901C20.8042 19.73 21.7439 20.6548 22.9021 20.6548C24.0603 20.6548 25 19.73 25 18.5901V11.2775C25 10.1376 24.0603 9.21277 22.9021 9.21277Z" fill="#A4C639"/>
<path d="M15.4719 17.5586C14.3137 17.5586 13.374 18.4834 13.374 19.6233V26.9359C13.374 28.0758 14.3137 29.0006 15.4719 29.0006C16.6301 29.0006 17.5698 28.0758 17.5698 26.9359V19.6233C17.5698 18.4834 16.6301 17.5586 15.4719 17.5586Z" fill="#A4C639"/>
<path d="M17.7116 0.0705257C17.9861 0.220219 18.0848 0.560899 17.9327 0.831035L14.8392 6.32408C14.6871 6.59421 14.341 6.69143 14.0665 6.54174C13.792 6.39204 13.6932 6.05136 13.8453 5.78123L16.9397 0.288183C17.0918 0.0180472 17.438 -0.0791672 17.7125 0.0705257H17.7116Z" fill="#A4C639"/>
<path d="M2.0979 9.21301C3.25612 9.21301 4.1958 10.1378 4.1958 11.2777V18.5903C4.1958 19.7302 3.25612 20.6551 2.0979 20.6551C0.939685 20.6551 0 19.7302 0 18.5903V11.2777C0 10.1378 0.939685 9.21301 2.0979 9.21301Z" fill="#A4C639"/>
<path d="M9.52796 17.5588C10.6862 17.5588 11.6259 18.4837 11.6259 19.6236V26.9362C11.6259 28.0761 10.6862 29.0009 9.52796 29.0009C8.36974 29.0009 7.43005 28.0761 7.43005 26.9362V19.6236C7.43005 18.4837 8.36974 17.5588 9.52796 17.5588Z" fill="#A4C639"/>
<path d="M12.5 1.98645C8.1066 1.98645 4.54541 5.22206 4.54541 9.21301H20.4545C20.4545 5.22206 16.8933 1.98645 12.5 1.98645Z" fill="#A4C639"/>
<path d="M4.54541 9.83398V21.1728C4.54541 22.2181 5.40642 23.0655 6.46849 23.0655H18.5314C19.5935 23.0655 20.4545 22.2181 20.4545 21.1728V9.83398H4.54541Z" fill="#A4C639"/>
<path d="M8.82865 6.02992C9.02176 6.02992 9.1783 5.87585 9.1783 5.6858C9.1783 5.49574 9.02176 5.34167 8.82865 5.34167C8.63555 5.34167 8.479 5.49574 8.479 5.6858C8.479 5.87585 8.63555 6.02992 8.82865 6.02992Z" fill="white"/>
<path d="M8.82864 6.33891C8.46238 6.33891 8.16431 6.04555 8.16431 5.68508C8.16431 5.32461 8.46238 5.03125 8.82864 5.03125C9.1949 5.03125 9.49298 5.32461 9.49298 5.68508C9.49298 6.04555 9.1949 6.33891 8.82864 6.33891ZM8.82864 5.65067C8.80941 5.65067 8.79368 5.66615 8.79368 5.68508C8.79368 5.70401 8.80941 5.71949 8.82864 5.71949C8.84787 5.71949 8.86361 5.70401 8.86361 5.68508C8.86361 5.66615 8.84787 5.65067 8.82864 5.65067Z" fill="white"/>
<path d="M16.1713 6.02992C16.3644 6.02992 16.521 5.87585 16.521 5.6858C16.521 5.49574 16.3644 5.34167 16.1713 5.34167C15.9782 5.34167 15.8217 5.49574 15.8217 5.6858C15.8217 5.87585 15.9782 6.02992 16.1713 6.02992Z" fill="white"/>
<path d="M16.1713 6.33891C15.805 6.33891 15.507 6.04555 15.507 5.68508C15.507 5.32461 15.805 5.03125 16.1713 5.03125C16.5376 5.03125 16.8356 5.32461 16.8356 5.68508C16.8356 6.04555 16.5376 6.33891 16.1713 6.33891ZM16.1713 5.65067C16.1521 5.65067 16.1363 5.66615 16.1363 5.68508C16.1363 5.70401 16.1521 5.71949 16.1713 5.71949C16.1905 5.71949 16.2063 5.70401 16.2063 5.68508C16.2063 5.66615 16.1905 5.65067 16.1713 5.65067Z" fill="white"/>
</g>
<path d="M38.7217 8.65575V3.42242H41.0094C41.5776 3.42242 42.076 3.53207 42.5046 3.75137C42.9333 3.97067 43.2672 4.2747 43.5064 4.66346C43.7457 5.05223 43.8653 5.51077 43.8653 6.03908C43.8653 6.56242 43.7457 7.02096 43.5064 7.4147C43.2672 7.80346 42.9333 8.10749 42.5046 8.3268C42.076 8.5461 41.5776 8.65575 41.0094 8.65575H38.7217ZM39.6936 7.83337H40.9645C41.3583 7.83337 41.6972 7.75861 41.9813 7.60908C42.2704 7.45956 42.4922 7.25022 42.6467 6.98108C42.8062 6.71194 42.8859 6.39794 42.8859 6.03908C42.8859 5.67524 42.8062 5.36124 42.6467 5.09708C42.4922 4.82794 42.2704 4.61861 41.9813 4.46908C41.6972 4.31956 41.3583 4.2448 40.9645 4.2448H39.6936V7.83337Z" fill="black"/>
<path d="M45.7954 5.59799H48.3971V6.39794H45.7954V5.59799ZM45.8702 7.84084H48.8233V8.65575H44.8983V3.42242H48.7186V4.23732H45.8702V7.84084Z" fill="black"/>
<path d="M51.5291 8.73051C51.1204 8.73051 50.7291 8.67319 50.3553 8.55856C49.9815 8.43894 49.685 8.28692 49.4657 8.10251L49.8021 7.34741C50.0114 7.51189 50.2706 7.64895 50.5796 7.75861C50.8886 7.86826 51.2051 7.92308 51.5291 7.92308C51.8032 7.92308 52.025 7.89318 52.1945 7.83337C52.3639 7.77356 52.4885 7.69381 52.5683 7.59413C52.648 7.48946 52.6879 7.37234 52.6879 7.24275C52.6879 7.08326 52.6306 6.95616 52.5159 6.86146C52.4013 6.76178 52.2518 6.68453 52.0674 6.6297C51.8879 6.56989 51.6861 6.51507 51.4618 6.46523C51.2425 6.41538 51.0207 6.35807 50.7964 6.29327C50.5771 6.2235 50.3753 6.13627 50.1908 6.03161C50.0114 5.92196 49.8644 5.77742 49.7498 5.59799C49.6351 5.41856 49.5778 5.18929 49.5778 4.91018C49.5778 4.62608 49.6526 4.36691 49.8021 4.13266C49.9566 3.89342 50.1884 3.70402 50.4974 3.56447C50.8114 3.41993 51.2076 3.34766 51.6861 3.34766C52.0001 3.34766 52.3116 3.38753 52.6206 3.46728C52.9296 3.54702 53.1988 3.66166 53.428 3.81118L53.1215 4.56627C52.8873 4.42672 52.6455 4.32454 52.3963 4.25975C52.1471 4.18997 51.9079 4.15508 51.6786 4.15508C51.4095 4.15508 51.1902 4.18748 51.0207 4.25227C50.8562 4.31707 50.7341 4.4018 50.6544 4.50647C50.5796 4.61113 50.5422 4.73075 50.5422 4.86532C50.5422 5.02481 50.5971 5.1544 50.7067 5.25408C50.8213 5.34878 50.9684 5.42354 51.1478 5.47837C51.3322 5.53319 51.5366 5.58802 51.7608 5.64285C51.9851 5.69269 52.2069 5.75 52.4262 5.8148C52.6505 5.87959 52.8524 5.96432 53.0318 6.06899C53.2162 6.17365 53.3632 6.3157 53.4729 6.49513C53.5875 6.67456 53.6448 6.90134 53.6448 7.17546C53.6448 7.45457 53.5676 7.71375 53.4131 7.95299C53.2636 8.18724 53.0318 8.37664 52.7178 8.52118C52.4038 8.66073 52.0076 8.73051 51.5291 8.73051Z" fill="black"/>
<path d="M57.0309 8.73051C56.6321 8.73051 56.2608 8.66572 55.9169 8.53613C55.578 8.40156 55.2814 8.21465 55.0272 7.97541C54.778 7.73119 54.5837 7.44461 54.4441 7.11565C54.3045 6.7867 54.2348 6.42784 54.2348 6.03908C54.2348 5.65032 54.3045 5.29146 54.4441 4.96251C54.5837 4.63356 54.7805 4.34947 55.0347 4.11023C55.2889 3.86601 55.5855 3.6791 55.9244 3.54951C56.2633 3.41494 56.6346 3.34766 57.0383 3.34766C57.467 3.34766 57.8582 3.42242 58.2121 3.57194C58.566 3.71648 58.865 3.93329 59.1092 4.22237L58.4812 4.81299C58.2918 4.60864 58.08 4.45662 57.8458 4.35694C57.6115 4.25227 57.3573 4.19994 57.0832 4.19994C56.8091 4.19994 56.5574 4.2448 56.3281 4.33451C56.1038 4.42423 55.9069 4.55132 55.7375 4.7158C55.573 4.88027 55.4434 5.07466 55.3487 5.29894C55.259 5.52323 55.2141 5.76994 55.2141 6.03908C55.2141 6.30823 55.259 6.55494 55.3487 6.77923C55.4434 7.00351 55.573 7.19789 55.7375 7.36237C55.9069 7.52684 56.1038 7.65394 56.3281 7.74365C56.5574 7.83337 56.8091 7.87822 57.0832 7.87822C57.3573 7.87822 57.6115 7.82838 57.8458 7.7287C58.08 7.62403 58.2918 7.46703 58.4812 7.2577L59.1092 7.8558C58.865 8.13989 58.566 8.3567 58.2121 8.50622C57.8582 8.65575 57.4645 8.73051 57.0309 8.73051Z" fill="black"/>
<path d="M59.1908 8.65575L61.5458 3.42242H62.5028L64.8653 8.65575H63.8485L61.8224 3.93827H62.2112L60.1926 8.65575H59.1908ZM60.2749 7.44461L60.5365 6.68203H63.3625L63.6242 7.44461H60.2749Z" fill="black"/>
<path d="M65.5308 8.65575V3.42242H67.6839C68.1475 3.42242 68.5437 3.49718 68.8727 3.6467C69.2066 3.79623 69.4633 4.01054 69.6427 4.28966C69.8221 4.56877 69.9119 4.90021 69.9119 5.28399C69.9119 5.66777 69.8221 5.99921 69.6427 6.27832C69.4633 6.55245 69.2066 6.76427 68.8727 6.9138C68.5437 7.05834 68.1475 7.13061 67.6839 7.13061H66.0691L66.5027 6.68951V8.65575H65.5308ZM68.9549 8.65575L67.6316 6.7568H68.6708L70.0016 8.65575H68.9549ZM66.5027 6.79418L66.0691 6.33065H67.6391C68.0677 6.33065 68.3892 6.23845 68.6035 6.05404C68.8228 5.86962 68.9325 5.61294 68.9325 5.28399C68.9325 4.95005 68.8228 4.69337 68.6035 4.51394C68.3892 4.33451 68.0677 4.2448 67.6391 4.2448H66.0691L66.5027 3.76632V6.79418Z" fill="black"/>
<path d="M73.4439 8.73051C73.0352 8.73051 72.6589 8.66572 72.315 8.53613C71.9761 8.40156 71.6796 8.21465 71.4254 7.97541C71.1712 7.73119 70.9743 7.44461 70.8348 7.11565C70.6952 6.7867 70.6254 6.42784 70.6254 6.03908C70.6254 5.65032 70.6952 5.29146 70.8348 4.96251C70.9743 4.63356 71.1712 4.34947 71.4254 4.11023C71.6845 3.86601 71.9861 3.6791 72.33 3.54951C72.6739 3.41494 73.0502 3.34766 73.4589 3.34766C73.9025 3.34766 74.3012 3.41993 74.6551 3.56447C75.0139 3.70901 75.3155 3.92083 75.5597 4.19994L74.9467 4.79804C74.7423 4.59369 74.5205 4.44416 74.2813 4.34946C74.047 4.24978 73.7878 4.19994 73.5038 4.19994C73.2296 4.19994 72.9754 4.2448 72.7412 4.33451C72.5069 4.42423 72.3051 4.55132 72.1356 4.7158C71.9661 4.88027 71.8341 5.07466 71.7394 5.29894C71.6497 5.52323 71.6048 5.76994 71.6048 6.03908C71.6048 6.30324 71.6497 6.54746 71.7394 6.77175C71.8341 6.99603 71.9661 7.19291 72.1356 7.36237C72.3051 7.52684 72.5044 7.65394 72.7337 7.74365C72.963 7.83337 73.2172 7.87822 73.4963 7.87822C73.7555 7.87822 74.0047 7.83835 74.2439 7.75861C74.4881 7.67388 74.7199 7.53432 74.9392 7.33994L75.4924 8.06513C75.2183 8.28443 74.8993 8.4514 74.5355 8.56603C74.1766 8.67568 73.8128 8.73051 73.4439 8.73051ZM74.5728 7.93803V5.97927H75.4924V8.06513L74.5728 7.93803Z" fill="black"/>
<path d="M76.0341 8.65575L78.3891 3.42242H79.3461L81.7086 8.65575H80.6918L78.6658 3.93827H79.0545L77.036 8.65575H76.0341ZM77.1182 7.44461L77.3799 6.68203H80.2059L80.4675 7.44461H77.1182Z" fill="black"/>
<path d="M82.3741 8.65575V3.42242H84.5273C84.9908 3.42242 85.387 3.49718 85.716 3.6467C86.0499 3.79623 86.3066 4.01054 86.486 4.28966C86.6655 4.56877 86.7552 4.90021 86.7552 5.28399C86.7552 5.66777 86.6655 5.99921 86.486 6.27832C86.3066 6.55245 86.0499 6.76427 85.716 6.9138C85.387 7.05834 84.9908 7.13061 84.5273 7.13061H82.9124L83.346 6.68951V8.65575H82.3741ZM85.7982 8.65575L84.4749 6.7568H85.5141L86.8449 8.65575H85.7982ZM83.346 6.79418L82.9124 6.33065H84.4824C84.911 6.33065 85.2325 6.23845 85.4468 6.05404C85.6661 5.86962 85.7758 5.61294 85.7758 5.28399C85.7758 4.95005 85.6661 4.69337 85.4468 4.51394C85.2325 4.33451 84.911 4.2448 84.4824 4.2448H82.9124L83.346 3.76632V6.79418Z" fill="black"/>
<path d="M89.9087 8.65575V3.42242H92.0619C92.5254 3.42242 92.9216 3.49718 93.2506 3.6467C93.5845 3.79623 93.8412 4.01054 94.0206 4.28966C94.2 4.56877 94.2898 4.90021 94.2898 5.28399C94.2898 5.66777 94.2 5.99921 94.0206 6.27832C93.8412 6.55743 93.5845 6.77175 93.2506 6.92127C92.9216 7.0708 92.5254 7.14556 92.0619 7.14556H90.447L90.8806 6.68951V8.65575H89.9087ZM90.8806 6.79418L90.447 6.32318H92.017C92.4456 6.32318 92.7671 6.23346 92.9814 6.05404C93.2007 5.86962 93.3104 5.61294 93.3104 5.28399C93.3104 4.95005 93.2007 4.69337 92.9814 4.51394C92.7671 4.33451 92.4456 4.2448 92.017 4.2448H90.447L90.8806 3.76632V6.79418Z" fill="black"/>
<path d="M94.2573 8.65575L96.6123 3.42242H97.5693L99.9318 8.65575H98.915L96.889 3.93827H97.2777L95.2592 8.65575H94.2573ZM95.3414 7.44461L95.6031 6.68203H98.4291L98.6907 7.44461H95.3414Z" fill="black"/>
<path d="M100.597 8.65575V3.42242H102.75C103.214 3.42242 103.61 3.49718 103.939 3.6467C104.273 3.79623 104.53 4.01054 104.709 4.28966C104.889 4.56877 104.978 4.90021 104.978 5.28399C104.978 5.66777 104.889 5.99921 104.709 6.27832C104.53 6.55245 104.273 6.76427 103.939 6.9138C103.61 7.05834 103.214 7.13061 102.75 7.13061H101.136L101.569 6.68951V8.65575H100.597ZM104.021 8.65575L102.698 6.7568H103.737L105.068 8.65575H104.021ZM101.569 6.79418L101.136 6.33065H102.706C103.134 6.33065 103.456 6.23845 103.67 6.05404C103.889 5.86962 103.999 5.61294 103.999 5.28399C103.999 4.95005 103.889 4.69337 103.67 4.51394C103.456 4.33451 103.134 4.2448 102.706 4.2448H101.136L101.569 3.76632V6.79418Z" fill="black"/>
<path d="M105.326 8.65575L107.681 3.42242H108.638L111 8.65575H109.983L107.957 3.93827H108.346L106.327 8.65575H105.326ZM106.41 7.44461L106.671 6.68203H109.497L109.759 7.44461H106.41Z" fill="black"/>
<defs>
<clipPath id="clip0_2014_3277">
<rect width="25" height="29" fill="white"/>
</clipPath>
</defs>
</svg>
