<svg width="125" height="33" viewBox="0 0 125 33" fill="none" xmlns="http://www.w3.org/2000/svg">
<path d="M19.2459 15.8617C19.2599 14.7768 19.5481 13.713 20.0837 12.7694C20.6192 11.8257 21.3848 11.0329 22.3091 10.4646C21.722 9.62599 20.9473 8.93583 20.0467 8.44896C19.1461 7.9621 18.1444 7.69192 17.1212 7.65991C14.9384 7.43078 12.8222 8.96606 11.7099 8.96606C10.5761 8.96606 8.8635 7.68266 7.01932 7.7206C5.82647 7.75914 4.66394 8.10601 3.645 8.72743C2.62606 9.34884 1.78546 10.2236 1.20511 11.2665C-1.30878 15.619 0.566362 22.0157 2.9745 25.534C4.17935 27.2568 5.58746 29.1811 7.42997 29.1129C9.23297 29.0381 9.90636 27.9632 12.0827 27.9632C14.2389 27.9632 14.8707 29.1129 16.7506 29.0695C18.6853 29.0381 19.9042 27.3391 21.0668 25.6C21.9325 24.3724 22.5986 23.0157 23.0406 21.5801C21.9165 21.1047 20.9573 20.309 20.2826 19.2921C19.6078 18.2752 19.2472 17.0822 19.2459 15.8617Z" fill="black"/>
<path d="M15.6952 5.34596C16.7501 4.07961 17.2698 2.45194 17.1439 0.808594C15.5323 0.977862 14.0436 1.74811 12.9745 2.96587C12.4518 3.56077 12.0514 4.25287 11.7963 5.0026C11.5412 5.75233 11.4364 6.54498 11.4878 7.33524C12.2939 7.34354 13.0914 7.16882 13.8202 6.82424C14.549 6.47967 15.1901 5.97421 15.6952 5.34596Z" fill="black"/>
<path d="M40.8772 24.9245H34.9604L33.5395 29.12H31.0334L36.6377 13.5975H39.2414L44.8457 29.12H42.2969L40.8772 24.9245ZM35.5732 22.9884H40.2632L37.9512 16.1793H37.8865L35.5732 22.9884Z" fill="black"/>
<path d="M56.949 23.4621C56.949 26.9789 55.0667 29.2384 52.2261 29.2384C51.5065 29.2761 50.7909 29.1103 50.1612 28.7601C49.5314 28.41 49.013 27.8895 48.6653 27.2584H48.6116V32.8639H46.2886V17.8029H48.5371V19.6852H48.5798C48.9435 19.0571 49.4707 18.5394 50.1052 18.1871C50.7398 17.8348 51.4579 17.6611 52.1833 17.6845C55.0557 17.6845 56.949 19.955 56.949 23.4621ZM54.5613 23.4621C54.5613 21.1708 53.3772 19.6644 51.5706 19.6644C49.7957 19.6644 48.6018 21.2025 48.6018 23.4621C48.6018 25.7423 49.7957 27.2694 51.5706 27.2694C53.3772 27.2694 54.5613 25.7741 54.5613 23.4621Z" fill="black"/>
<path d="M69.4057 23.4621C69.4057 26.9789 67.5227 29.2384 64.6822 29.2384C63.9626 29.2761 63.247 29.1103 62.6172 28.7601C61.9875 28.41 61.4691 27.8895 61.1214 27.2584H61.0676V32.8639H58.7446V17.8029H60.9932V19.6852H61.0359C61.3996 19.0571 61.9267 18.5394 62.5613 18.1871C63.1958 17.8348 63.914 17.6611 64.6394 17.6845C67.5118 17.6845 69.4057 19.955 69.4057 23.4621ZM67.0174 23.4621C67.0174 21.1708 65.8333 19.6644 64.0266 19.6644C62.2517 19.6644 61.0579 21.2025 61.0579 23.4621C61.0579 25.7423 62.2517 27.2694 64.0266 27.2694C65.8333 27.2694 67.0174 25.7741 67.0174 23.4621Z" fill="black"/>
<path d="M77.6368 24.7951C77.8089 26.3344 79.3043 27.3451 81.3477 27.3451C83.3057 27.3451 84.7144 26.3344 84.7144 24.9464C84.7144 23.7416 83.8648 23.0202 81.8531 22.5258L79.8414 22.0411C76.991 21.3527 75.6678 20.0197 75.6678 17.8566C75.6678 15.1783 78.0018 13.3387 81.3148 13.3387C84.596 13.3387 86.8446 15.1783 86.9202 17.8566H84.5752C84.4349 16.3075 83.1543 15.3724 81.283 15.3724C79.4117 15.3724 78.1312 16.3185 78.1312 17.6954C78.1312 18.7929 78.949 19.4386 80.9498 19.9329L82.66 20.3529C85.8448 21.106 87.1668 22.3854 87.1668 24.6558C87.1668 27.5599 84.8548 29.3787 81.1755 29.3787C77.7331 29.3787 75.4089 27.6026 75.2588 24.795L77.6368 24.7951Z" fill="black"/>
<path d="M92.1826 15.1246V17.8029H94.3347V19.6425H92.1826V25.8815C92.1826 26.8507 92.6135 27.3024 93.5596 27.3024C93.8151 27.2979 94.0701 27.28 94.3237 27.2486V29.0772C93.8984 29.1567 93.4661 29.1927 93.0334 29.1847C90.7422 29.1847 89.8486 28.3241 89.8486 26.1292V19.6425H88.2031V17.8029H89.8486V15.1246H92.1826Z" fill="black"/>
<path d="M95.5801 23.4622C95.5801 19.9014 97.6772 17.6638 100.948 17.6638C104.229 17.6638 106.316 19.9013 106.316 23.4622C106.316 27.0327 104.24 29.2605 100.948 29.2605C97.6565 29.2605 95.5801 27.0327 95.5801 23.4622ZM103.949 23.4622C103.949 21.0195 102.83 19.5779 100.948 19.5779C99.0652 19.5779 97.9458 21.0305 97.9458 23.4622C97.9458 25.9145 99.0652 27.3452 100.948 27.3452C102.83 27.3452 103.949 25.9145 103.949 23.4622Z" fill="black"/>
<path d="M108.231 17.8029H110.447V19.7291H110.501C110.65 19.1275 111.003 18.5959 111.499 18.2235C111.994 17.8512 112.603 17.6608 113.223 17.6845C113.49 17.6835 113.757 17.7126 114.019 17.7711V19.944C113.681 19.8407 113.328 19.7933 112.975 19.8036C112.637 19.7899 112.301 19.8494 111.989 19.978C111.676 20.1066 111.396 20.3013 111.166 20.5487C110.936 20.796 110.762 21.0902 110.656 21.4111C110.551 21.7319 110.516 22.0718 110.554 22.4074V29.12H108.231L108.231 17.8029Z" fill="black"/>
<path d="M124.729 25.796C124.417 27.8505 122.416 29.2604 119.856 29.2604C116.564 29.2604 114.521 27.0546 114.521 23.5157C114.521 19.9659 116.575 17.6637 119.759 17.6637C122.89 17.6637 124.859 19.8146 124.859 23.246V24.0419H116.865V24.1822C116.829 24.5987 116.881 25.0183 117.018 25.4131C117.156 25.8079 117.376 26.1689 117.664 26.4721C117.952 26.7753 118.301 27.0137 118.689 27.1716C119.076 27.3295 119.492 27.4032 119.91 27.3878C120.459 27.4392 121.01 27.3121 121.481 27.0253C121.952 26.7385 122.317 26.3074 122.523 25.796L124.729 25.796ZM116.876 22.4183H122.534C122.555 22.0438 122.498 21.6691 122.368 21.3176C122.237 20.9661 122.035 20.6454 121.774 20.3757C121.513 20.106 121.2 19.893 120.853 19.7503C120.506 19.6075 120.134 19.538 119.759 19.546C119.38 19.5438 119.005 19.6164 118.655 19.7599C118.305 19.9033 117.987 20.1146 117.719 20.3817C117.451 20.6487 117.239 20.9662 117.094 21.3157C116.949 21.6653 116.875 22.04 116.876 22.4183Z" fill="black"/>
<path d="M35.2827 1.91386C35.7697 1.87891 36.2584 1.95249 36.7136 2.12928C37.1687 2.30607 37.5789 2.58167 37.9147 2.9362C38.2504 3.29073 38.5033 3.71535 38.655 4.17944C38.8068 4.64353 38.8536 5.13552 38.7922 5.61991C38.7922 8.00272 37.5044 9.37241 35.2827 9.37241H32.5886V1.91386H35.2827ZM33.7471 8.31761H35.1533C35.5013 8.33841 35.8496 8.28135 36.1728 8.15058C36.4959 8.01982 36.7859 7.81863 37.0215 7.56167C37.2571 7.30472 37.4325 6.99845 37.5348 6.66518C37.6371 6.33191 37.6638 5.98001 37.613 5.63511C37.6602 5.29157 37.6307 4.94185 37.5268 4.61102C37.4229 4.28019 37.2471 3.97644 37.0121 3.72153C36.777 3.46661 36.4884 3.26685 36.1671 3.13656C35.8457 3.00626 35.4995 2.94866 35.1533 2.96787H33.7471V8.31761Z" fill="black"/>
<path d="M45.1398 7.8524C44.9889 8.36682 44.6619 8.8118 44.2161 9.10949C43.7702 9.40718 43.2339 9.53861 42.7009 9.48081C42.3301 9.4906 41.9615 9.41957 41.6209 9.27266C41.2803 9.12575 40.9757 8.90647 40.7283 8.63005C40.4809 8.35363 40.2967 8.02668 40.1883 7.6719C40.0799 7.31712 40.0501 6.94301 40.1008 6.57553C40.0514 6.20693 40.0818 5.83201 40.1899 5.47617C40.298 5.12033 40.4813 4.79187 40.7274 4.51303C40.9735 4.23419 41.2766 4.01148 41.6162 3.85997C41.9559 3.70846 42.3241 3.63169 42.696 3.63486C44.2622 3.63486 45.207 4.70486 45.207 6.47236V6.85998H41.2324V6.92223C41.215 7.12879 41.241 7.33671 41.3087 7.53264C41.3763 7.72858 41.4842 7.90822 41.6253 8.06004C41.7664 8.21186 41.9377 8.33251 42.1282 8.41425C42.3187 8.496 42.5242 8.53704 42.7315 8.53473C42.9972 8.56663 43.2664 8.51879 43.5048 8.39728C43.7433 8.27577 43.9402 8.08609 44.0706 7.85236L45.1398 7.8524ZM41.2324 6.03843H44.0754C44.0894 5.84953 44.0637 5.65978 44 5.48138C43.9363 5.30298 43.836 5.13988 43.7055 5.00256C43.575 4.86524 43.4173 4.75673 43.2423 4.68401C43.0674 4.61129 42.8792 4.57597 42.6899 4.58031C42.4977 4.5779 42.3071 4.61398 42.1291 4.68642C41.9512 4.75885 41.7895 4.86618 41.6537 5.00207C41.5179 5.13796 41.4106 5.29967 41.3383 5.47766C41.2659 5.65565 41.2299 5.84632 41.2324 6.03843Z" fill="black"/>
<path d="M48.7556 3.63501C50.0215 3.63501 50.8491 4.224 50.9578 5.21643H49.8921C49.7896 4.80322 49.3855 4.53956 48.7556 4.53956C48.1355 4.53956 47.6644 4.83375 47.6644 5.2732C47.6644 5.60945 47.9488 5.8213 48.5591 5.96106L49.4941 6.17773C50.5647 6.42615 51.0664 6.88635 51.0664 7.71338C51.0664 8.77296 50.0789 9.48096 48.7349 9.48096C47.3957 9.48096 46.5229 8.8761 46.4241 7.87878H47.5361C47.632 8.11615 47.8048 8.31445 48.0268 8.44184C48.2488 8.56924 48.5072 8.61834 48.7605 8.58128C49.4526 8.58128 49.9446 8.27128 49.9446 7.8214C49.9446 7.48571 49.6809 7.26842 49.1169 7.13415L48.1355 6.90648C47.0649 6.65318 46.5693 6.17285 46.5693 5.33543C46.5693 4.33752 47.4836 3.63501 48.7556 3.63501Z" fill="black"/>
<path d="M56.2484 5.58318C56.1775 5.29131 56.0045 5.03444 55.7607 4.85911C55.5168 4.68378 55.2183 4.60157 54.919 4.62737C53.9888 4.62737 53.42 5.34026 53.42 6.53961C53.42 7.75969 53.9937 8.48846 54.919 8.48846C55.2153 8.52278 55.5139 8.44769 55.7587 8.27729C56.0035 8.1069 56.1777 7.85294 56.2484 7.56317H57.3287C57.2572 8.13313 56.966 8.65263 56.5169 9.01088C56.0679 9.36913 55.4967 9.53779 54.9251 9.48089C54.5488 9.49278 54.1744 9.42229 53.8281 9.27436C53.4818 9.12644 53.172 8.90464 52.9204 8.6245C52.6688 8.34435 52.4815 8.01261 52.3714 7.65249C52.2614 7.29238 52.2314 6.91257 52.2835 6.53964C52.2341 6.16947 52.266 5.79295 52.377 5.43638C52.4881 5.07981 52.6757 4.75178 52.9266 4.47519C53.1776 4.1986 53.4859 3.98012 53.83 3.835C54.1741 3.68988 54.5458 3.62162 54.919 3.63498C55.4953 3.5819 56.0696 3.75579 56.5196 4.11964C56.9696 4.4835 57.2599 5.0086 57.3287 5.58322L56.2484 5.58318Z" fill="black"/>
<path d="M58.4309 7.7804C58.4309 6.76721 59.1853 6.18311 60.5244 6.1001L62.0491 6.01221V5.52638C62.0491 4.93189 61.656 4.5962 60.8967 4.5962C60.2766 4.5962 59.8469 4.82386 59.7236 5.22181H58.6482C58.7617 4.25501 59.6711 3.6349 60.948 3.6349C62.3591 3.6349 63.155 4.3374 63.155 5.52638V9.3722H62.0857V8.58119H61.9978C61.8194 8.86493 61.5689 9.09624 61.2719 9.2515C60.9749 9.40677 60.6419 9.48042 60.3071 9.46494C60.0708 9.48952 59.832 9.46431 59.6061 9.39093C59.3801 9.31756 59.1721 9.19765 58.9953 9.03894C58.8185 8.88023 58.677 8.68624 58.5797 8.46947C58.4825 8.2527 58.4318 8.01797 58.4309 7.7804ZM62.0491 7.29944V6.82886L60.6746 6.91675C59.8994 6.96863 59.5478 7.2323 59.5478 7.72851C59.5478 8.2351 59.9873 8.5299 60.5916 8.5299C60.7687 8.54782 60.9475 8.52995 61.1175 8.47733C61.2875 8.42472 61.4452 8.33845 61.5812 8.22365C61.7172 8.10884 61.8287 7.96786 61.909 7.80909C61.9894 7.65031 62.037 7.47699 62.0491 7.29944ZM60.2815 2.80236L61.5791 1.02441H62.8816L61.4289 2.80236H60.2815Z" fill="black"/>
<path d="M64.8945 3.74345H65.9639V4.60648H66.0469C66.1666 4.30689 66.3782 4.05294 66.6512 3.8811C66.9243 3.70926 67.2448 3.62837 67.5667 3.65006C67.733 3.64782 67.8992 3.66337 68.0623 3.69645V4.7927C67.8584 4.74914 67.6506 4.72664 67.4421 4.72556C67.2589 4.70911 67.0743 4.73116 66.9001 4.79031C66.7259 4.84946 66.566 4.94439 66.4307 5.06901C66.2954 5.19363 66.1877 5.34518 66.1144 5.51392C66.0412 5.68265 66.004 5.86485 66.0054 6.0488V9.37216H64.8945L64.8945 3.74345Z" fill="black"/>
<path d="M69.0827 9.93551H70.2198C70.3138 10.3438 70.7838 10.6075 71.5333 10.6075C72.4586 10.6075 73.0067 10.1681 73.0067 9.42403V8.34371H72.9237C72.7495 8.64612 72.495 8.89447 72.1885 9.06132C71.8819 9.22817 71.5352 9.30701 71.1866 9.28914C69.7499 9.28914 68.8606 8.17831 68.8606 6.49312C68.8606 4.77687 69.7597 3.65011 71.1976 3.65011C71.5549 3.63767 71.9088 3.72365 72.2205 3.89868C72.5322 4.0737 72.7898 4.33103 72.9652 4.64255H73.0531V3.74349H74.1176V9.4185C74.1176 10.7057 73.1092 11.5224 71.5174 11.5224C70.1112 11.5225 69.2012 10.8919 69.0827 9.93551ZM73.0274 6.48763C73.0274 5.36638 72.4476 4.64803 71.5016 4.64803C70.5458 4.64803 70.0086 5.36642 70.0086 6.48763C70.0086 7.60946 70.5458 8.32785 71.5016 8.32785C72.4537 8.32783 73.0274 7.61496 73.0274 6.48763Z" fill="black"/>
<path d="M75.5664 7.78051C75.5664 6.76732 76.3208 6.18322 77.6599 6.10021L79.1846 6.01232V5.52649C79.1846 4.932 78.7915 4.59631 78.0322 4.59631C77.4121 4.59631 76.9824 4.82397 76.8591 5.22192H75.7837C75.8972 4.25512 76.8066 3.63501 78.0835 3.63501C79.4946 3.63501 80.2905 4.33751 80.2905 5.52649V9.37231H79.2212V8.5813H79.1333C78.9549 8.86504 78.7044 9.09635 78.4074 9.25161C78.1104 9.40688 77.7774 9.48053 77.4426 9.46505C77.2063 9.48963 76.9675 9.46442 76.7416 9.39104C76.5156 9.31767 76.3076 9.19776 76.1308 9.03905C75.954 8.88034 75.8125 8.68635 75.7152 8.46958C75.618 8.25281 75.5673 8.01807 75.5664 7.78051ZM79.1846 7.29955V6.82897L77.8101 6.91686C77.0349 6.96874 76.6833 7.23241 76.6833 7.72862C76.6833 8.23521 77.1228 8.53001 77.7271 8.53001C77.9042 8.54793 78.083 8.53006 78.253 8.47744C78.423 8.42483 78.5807 8.33856 78.7167 8.22375C78.8527 8.10895 78.9642 7.96797 79.0445 7.8092C79.1249 7.65042 79.1725 7.4771 79.1846 7.29955Z" fill="black"/>
<path d="M82.0815 1.54614H83.1924V9.37207H82.0815V1.54614Z" fill="black"/>
<path d="M84.7364 6.55548C84.701 6.18558 84.7434 5.81237 84.8607 5.45979C84.978 5.1072 85.1677 4.78302 85.4176 4.50805C85.6675 4.23307 85.9721 4.01336 86.312 3.86302C86.6518 3.71267 87.0193 3.63501 87.3909 3.63501C87.7624 3.63501 88.1299 3.71267 88.4697 3.86302C88.8095 4.01336 89.1142 4.23307 89.3641 4.50805C89.614 4.78302 89.8037 5.1072 89.921 5.45979C90.0383 5.81237 90.0807 6.18558 90.0453 6.55548C90.0813 6.92576 90.0395 7.29949 89.9225 7.65264C89.8055 8.0058 89.616 8.33057 89.366 8.60609C89.116 8.88161 88.8111 9.10177 88.4709 9.25244C88.1308 9.40311 87.7629 9.48095 87.3909 9.48095C87.0188 9.48095 86.6509 9.40311 86.3108 9.25244C85.9706 9.10177 85.6657 8.88161 85.4157 8.60609C85.1657 8.33057 84.9762 8.0058 84.8592 7.65264C84.7422 7.29949 84.7004 6.92576 84.7364 6.55548ZM88.9027 6.55548C88.9027 5.33539 88.3546 4.6219 87.3927 4.6219C86.4271 4.6219 85.8839 5.3354 85.8839 6.5555C85.8839 7.78536 86.4271 8.49336 87.3927 8.49336C88.3546 8.49335 88.9027 7.78046 88.9027 6.55548Z" fill="black"/>
<path d="M99.3496 7.8524C99.1986 8.36682 98.8716 8.8118 98.4258 9.10949C97.9799 9.40718 97.4436 9.53861 96.9106 9.48081C96.5398 9.4906 96.1713 9.41957 95.8306 9.27266C95.49 9.12575 95.1854 8.90647 94.938 8.63005C94.6906 8.35363 94.5064 8.02668 94.398 7.6719C94.2897 7.31712 94.2598 6.94301 94.3105 6.57553C94.2611 6.20693 94.2915 5.83201 94.3996 5.47617C94.5077 5.12033 94.691 4.79187 94.9371 4.51303C95.1832 4.23419 95.4863 4.01148 95.826 3.85997C96.1656 3.70846 96.5338 3.63169 96.9057 3.63486C98.4719 3.63486 99.4167 4.70486 99.4167 6.47236V6.85998H95.4421V6.92223C95.4247 7.12879 95.4507 7.33671 95.5183 7.53264C95.586 7.72858 95.6938 7.90822 95.835 8.06004C95.9761 8.21186 96.1474 8.33251 96.3379 8.41425C96.5284 8.496 96.7338 8.53704 96.9411 8.53473C97.2068 8.56663 97.476 8.51879 97.7145 8.39728C97.9529 8.27577 98.1499 8.08609 98.2802 7.85236L99.3496 7.8524ZM95.4421 6.03843H98.285C98.2991 5.84953 98.2734 5.65978 98.2097 5.48138C98.146 5.30298 98.0457 5.13988 97.9152 5.00256C97.7847 4.86524 97.6269 4.75673 97.452 4.68401C97.2771 4.61129 97.0889 4.57597 96.8995 4.58031C96.7074 4.5779 96.5168 4.61397 96.3388 4.68641C96.1608 4.75884 95.9992 4.86616 95.8634 5.00206C95.7275 5.13795 95.6203 5.29965 95.5479 5.47765C95.4756 5.65564 95.4396 5.84632 95.4421 6.03843Z" fill="black"/>
<path d="M100.908 3.74359H101.978V4.63775H102.061C102.202 4.3166 102.439 4.04738 102.74 3.86762C103.041 3.68787 103.391 3.60652 103.74 3.63494C104.014 3.61434 104.289 3.65564 104.545 3.75576C104.801 3.85588 105.031 4.01226 105.218 4.21331C105.405 4.41437 105.544 4.65494 105.626 4.91722C105.707 5.17949 105.729 5.45675 105.689 5.72844V9.37219H104.578V6.00739C104.578 5.10285 104.185 4.65301 103.363 4.65301C103.177 4.64435 102.992 4.676 102.819 4.74579C102.647 4.81557 102.491 4.92185 102.363 5.05733C102.236 5.19281 102.139 5.35429 102.08 5.53071C102.02 5.70712 102 5.89429 102.019 6.0794V9.37225H100.908V3.74359Z" fill="black"/>
<path d="M115.22 7.8524C115.069 8.36682 114.742 8.8118 114.296 9.10949C113.85 9.40718 113.314 9.53861 112.781 9.48081C112.41 9.4906 112.042 9.41957 111.701 9.27266C111.36 9.12575 111.056 8.90647 110.808 8.63005C110.561 8.35363 110.377 8.02668 110.268 7.6719C110.16 7.31712 110.13 6.94301 110.181 6.57553C110.131 6.20693 110.162 5.83201 110.27 5.47617C110.378 5.12033 110.561 4.79187 110.807 4.51303C111.054 4.23419 111.357 4.01148 111.696 3.85997C112.036 3.70846 112.404 3.63169 112.776 3.63486C114.342 3.63486 115.287 4.70486 115.287 6.47236V6.85998H111.312V6.92223C111.295 7.12879 111.321 7.33671 111.389 7.53264C111.456 7.72858 111.564 7.90822 111.705 8.06004C111.846 8.21186 112.018 8.33251 112.208 8.41425C112.399 8.496 112.604 8.53704 112.811 8.53473C113.077 8.56663 113.346 8.51879 113.585 8.39728C113.823 8.27577 114.02 8.08609 114.151 7.85236L115.22 7.8524ZM111.312 6.03843H114.155C114.169 5.84953 114.144 5.65978 114.08 5.48138C114.016 5.30298 113.916 5.13988 113.786 5.00256C113.655 4.86524 113.497 4.75673 113.322 4.68401C113.148 4.61129 112.959 4.57597 112.77 4.58031C112.578 4.5779 112.387 4.61397 112.209 4.6864C112.031 4.75883 111.87 4.86615 111.734 5.00205C111.598 5.13794 111.491 5.29965 111.418 5.47764C111.346 5.65564 111.31 5.84631 111.312 6.03843Z" fill="black"/>
<path d="M116.83 1.54614H117.941V9.37207H116.83V1.54614Z" fill="black"/>
</svg>
