<svg width="22" height="23" viewBox="0 0 22 23" fill="none" xmlns="http://www.w3.org/2000/svg">
<path d="M11 2.57495C13.8875 2.57495 14.2812 2.57495 15.4625 2.57495C16.5125 2.57495 17.0375 2.83745 17.4312 2.9687C17.9562 3.2312 18.35 3.36245 18.7437 3.7562C19.1375 4.14995 19.4 4.5437 19.5312 5.0687C19.6625 5.46245 19.7937 5.98745 19.925 7.03745C19.925 8.2187 19.925 8.4812 19.925 11.5C19.925 14.5187 19.925 14.7812 19.925 15.9625C19.925 17.0125 19.6625 17.5375 19.5312 17.9312C19.2687 18.4562 19.1375 18.85 18.7437 19.2437C18.35 19.6375 17.9562 19.9 17.4312 20.0312C17.0375 20.1625 16.5125 20.2937 15.4625 20.425C14.2812 20.425 14.0187 20.425 11 20.425C7.9812 20.425 7.7187 20.425 6.53745 20.425C5.48745 20.425 4.96245 20.1625 4.5687 20.0312C4.0437 19.7687 3.64995 19.6375 3.2562 19.2437C2.86245 18.85 2.59995 18.4562 2.4687 17.9312C2.33745 17.5375 2.2062 17.0125 2.07495 15.9625C2.07495 14.7812 2.07495 14.5187 2.07495 11.5C2.07495 8.4812 2.07495 8.2187 2.07495 7.03745C2.07495 5.98745 2.33745 5.46245 2.4687 5.0687C2.7312 4.5437 2.86245 4.14995 3.2562 3.7562C3.64995 3.36245 4.0437 3.09995 4.5687 2.9687C4.96245 2.83745 5.48745 2.7062 6.53745 2.57495C7.7187 2.57495 8.11245 2.57495 11 2.57495ZM11 0.606201C7.9812 0.606201 7.7187 0.606201 6.53745 0.606201C5.3562 0.606201 4.5687 0.868702 3.91245 1.1312C3.2562 1.3937 2.59995 1.78745 1.9437 2.4437C1.28745 3.09995 1.02495 3.62495 0.631202 4.41245C0.368702 5.0687 0.237451 5.8562 0.106201 7.03745C0.106201 8.2187 0.106201 8.61245 0.106201 11.5C0.106201 14.5187 0.106201 14.7812 0.106201 15.9625C0.106201 17.1437 0.368702 17.9312 0.631202 18.5875C0.893702 19.2437 1.28745 19.9 1.9437 20.5562C2.59995 21.2125 3.12495 21.475 3.91245 21.8687C4.5687 22.1312 5.3562 22.2624 6.53745 22.3937C7.7187 22.3937 8.11245 22.3937 11 22.3937C13.8875 22.3937 14.2812 22.3937 15.4625 22.3937C16.6437 22.3937 17.4312 22.1312 18.0875 21.8687C18.7437 21.6062 19.4 21.2125 20.0562 20.5562C20.7125 19.9 20.975 19.375 21.3687 18.5875C21.6312 17.9312 21.7624 17.1437 21.8937 15.9625C21.8937 14.7812 21.8937 14.3875 21.8937 11.5C21.8937 8.61245 21.8937 8.2187 21.8937 7.03745C21.8937 5.8562 21.6312 5.0687 21.3687 4.41245C21.1062 3.7562 20.7125 3.09995 20.0562 2.4437C19.4 1.78745 18.875 1.52495 18.0875 1.1312C17.4312 0.868702 16.6437 0.737451 15.4625 0.606201C14.2812 0.606201 14.0187 0.606201 11 0.606201Z" fill="white"/>
<path d="M11 5.8562C7.84995 5.8562 5.3562 8.34995 5.3562 11.5C5.3562 14.65 7.84995 17.1437 11 17.1437C14.15 17.1437 16.6437 14.65 16.6437 11.5C16.6437 8.34995 14.15 5.8562 11 5.8562ZM11 15.175C9.0312 15.175 7.32495 13.6 7.32495 11.5C7.32495 9.5312 8.89995 7.82495 11 7.82495C12.9687 7.82495 14.675 9.39995 14.675 11.5C14.675 13.4687 12.9687 15.175 11 15.175Z" fill="white"/>
<path d="M16.775 7.03745C17.4998 7.03745 18.0875 6.44983 18.0875 5.72495C18.0875 5.00008 17.4998 4.41245 16.775 4.41245C16.0501 4.41245 15.4625 5.00008 15.4625 5.72495C15.4625 6.44983 16.0501 7.03745 16.775 7.03745Z" fill="white"/>
</svg>
