<svg width="16" height="16" viewBox="0 0 16 16" fill="none" xmlns="http://www.w3.org/2000/svg">
<path d="M2 13.9653L2.91835 10.6273C2.351 9.64809 2.053 8.53727 2.05437 7.40683C2.05586 3.85494 4.95932 0.965332 8.52723 0.965332C10.2586 0.966208 11.8837 1.63698 13.1059 2.8546C14.3282 4.07223 15.0006 5.6907 15 7.412C14.9984 10.9636 12.0945 13.8538 8.52714 13.8538H8.52432C7.44112 13.8533 6.37673 13.5828 5.43129 13.0696L2 13.9653Z" fill="white"/>
<path d="M8.50215 1.96535C5.46832 1.96535 3.00108 4.43156 3.00001 7.46291C2.99851 8.49803 3.29002 9.51244 3.84082 10.3889L3.97168 10.5969L3.41596 12.6256L5.49764 12.0798L5.69864 12.1988C6.54288 12.6999 7.51087 12.9648 8.49801 12.9653H8.50008C11.5316 12.9653 13.9988 10.4988 14 7.46732C14.0023 6.74476 13.8612 6.02893 13.5849 5.36127C13.3087 4.6936 12.9027 4.08737 12.3906 3.57765C11.8812 3.06515 11.2753 2.65877 10.6079 2.38201C9.94042 2.10526 9.2247 1.96364 8.50215 1.96535Z" fill="url(#paint0_linear_2014_2933)"/>
<path fill-rule="evenodd" clip-rule="evenodd" d="M6.77979 5.24404C6.6507 4.97901 6.51485 4.97364 6.39222 4.96905L6.06208 4.96533C5.94723 4.96533 5.76061 5.00516 5.60285 5.16447C5.44509 5.32378 5 5.7088 5 6.49193C5 7.27505 5.61718 8.03177 5.70318 8.13809C5.78919 8.24441 6.89465 9.9027 8.6453 10.5407C10.1001 11.0709 10.3961 10.9655 10.712 10.939C11.0279 10.9125 11.731 10.554 11.8745 10.1823C12.0179 9.81058 12.018 9.49213 11.975 9.42555C11.932 9.35897 11.8171 9.3194 11.6447 9.23975C11.4724 9.16009 10.6258 8.77507 10.4679 8.72191C10.31 8.66875 10.1953 8.64234 10.0803 8.80165C9.96539 8.96096 9.63572 9.31932 9.53519 9.42555C9.43467 9.53179 9.33434 9.54512 9.16196 9.46555C8.98958 9.38598 8.43498 9.21784 7.77695 8.67559C7.26497 8.25368 6.91938 7.73263 6.81876 7.57341C6.71815 7.41419 6.80808 7.32795 6.89446 7.24865C6.97175 7.1773 7.06665 7.06276 7.15293 6.96985C7.23921 6.87695 7.2676 6.81055 7.32493 6.70448C7.38227 6.59842 7.35369 6.50526 7.3106 6.42569C7.2675 6.34613 6.93287 5.55884 6.77979 5.24404Z" fill="white"/>
<defs>
<linearGradient id="paint0_linear_2014_2933" x1="8.38802" y1="2.62545" x2="8.44377" y2="12.0256" gradientUnits="userSpaceOnUse">
<stop stop-color="#57D163"/>
<stop offset="1" stop-color="#23B33A"/>
</linearGradient>
</defs>
</svg>
