<svg width="47" height="33" viewBox="0 0 47 33" fill="none" xmlns="http://www.w3.org/2000/svg">
<rect width="47" height="32.2286" rx="4" fill="white"/>
<g clip-path="url(#clip0_2014_3432)">
<path d="M42.1623 9.16602H4.96973V22.5765H42.1623V9.16602Z" fill="#36904E"/>
<path d="M36.7662 13.8397C36.7662 13.8397 37.0334 13.7092 37.2074 13.7962C37.3877 13.8832 41.0665 17.792 41.0665 17.792C41.0665 17.792 41.3337 18.1462 41.4642 18.1462C41.5947 18.1462 41.7315 16.5491 41.6445 16.0644C41.5575 15.5735 39.2955 11.9381 38.674 11.8511C38.0526 11.7517 36.7662 13.8397 36.7662 13.8397Z" fill="#FBB040"/>
<path d="M40.3646 13.8026C40.3646 13.8026 40.0974 13.6721 39.9234 13.7591C39.7432 13.8461 36.0643 17.7549 36.0643 17.7549C36.0643 17.7549 35.7971 18.1091 35.6666 18.1091C35.5361 18.1091 35.3994 16.512 35.4864 16.0273C35.5734 15.5364 37.8354 11.901 38.4568 11.814C39.0782 11.7146 40.3646 13.8026 40.3646 13.8026Z" fill="#ED1D24"/>
<path d="M10.8225 13.6332C10.9468 13.5897 11.1519 13.5586 11.3507 13.5586C11.6428 13.5586 11.8292 13.6332 11.9659 13.7947C12.084 13.919 12.1586 14.1117 12.1586 14.3602C12.1586 14.6772 12.0094 14.9444 11.7795 15.0625V15.0749C11.9908 15.1495 12.2456 15.398 12.2456 15.8765C12.2456 16.15 12.171 16.3675 12.0529 16.5166C11.8976 16.7217 11.649 16.8149 11.2824 16.8149C11.0835 16.8149 10.9282 16.7962 10.8349 16.7776V13.6332H10.8225ZM11.1084 14.9444H11.3694C11.6739 14.9444 11.8541 14.7082 11.8541 14.4037C11.8541 14.0309 11.6552 13.8817 11.3632 13.8817C11.2327 13.8817 11.1519 13.8942 11.1084 13.9128V14.9444ZM11.1084 16.4793C11.1705 16.4917 11.2451 16.498 11.3507 16.498C11.649 16.498 11.9287 16.3426 11.9287 15.8765C11.9287 15.4415 11.6677 15.2613 11.3507 15.2613H11.1084V16.4793V16.4793Z" fill="white"/>
<path d="M14.0914 15.6241C14.0914 16.4754 13.675 16.8483 13.2897 16.8483C12.8547 16.8483 12.5192 16.3884 12.5192 15.6614C12.5192 14.897 12.8734 14.4434 13.3208 14.4434C13.7745 14.4434 14.0914 14.9219 14.0914 15.6241ZM12.8112 15.6489C12.8112 16.1523 13.0101 16.5314 13.296 16.5314C13.5756 16.5314 13.7869 16.1585 13.7869 15.6365C13.7869 15.245 13.6502 14.7541 13.3022 14.7541C12.9604 14.7541 12.8112 15.2139 12.8112 15.6489Z" fill="white"/>
<path d="M15.8495 13.4102V16.1942C15.8495 16.3992 15.8557 16.6354 15.8619 16.7907H15.6009L15.5885 16.393H15.5761C15.4891 16.6478 15.2964 16.8467 15.0354 16.8467C14.6439 16.8467 14.3394 16.3744 14.3394 15.6722C14.3332 14.9078 14.675 14.4417 15.0603 14.4417C15.3089 14.4417 15.4767 14.6095 15.545 14.7897H15.5512V13.4164H15.8495V13.4102ZM15.5574 15.4236C15.5574 15.3739 15.5512 15.2993 15.545 15.2496C15.5015 14.9886 15.3399 14.7711 15.1224 14.7711C14.8179 14.7711 14.6377 15.1502 14.6377 15.6535C14.6377 16.1196 14.7993 16.5049 15.1162 16.5049C15.3151 16.5049 15.4953 16.3122 15.545 16.0015C15.5574 15.9456 15.5574 15.8897 15.5574 15.8213V15.4236V15.4236Z" fill="white"/>
<path d="M16.5025 15.7173C16.5088 16.2828 16.7573 16.5189 17.0556 16.5189C17.2669 16.5189 17.3974 16.4692 17.503 16.4009L17.559 16.6991C17.4533 16.7675 17.2731 16.8483 17.0183 16.8483C16.5212 16.8483 16.2229 16.376 16.2229 15.68C16.2229 14.984 16.5088 14.4434 16.981 14.4434C17.5093 14.4434 17.646 15.1021 17.646 15.5246C17.646 15.6116 17.6398 15.6738 17.6335 15.7173H16.5025ZM17.3663 15.419C17.3725 15.158 17.2918 14.7416 16.9624 14.7416C16.6641 14.7416 16.5336 15.1269 16.515 15.419H17.3663Z" fill="white"/>
<path d="M19.3922 16.4552C19.3922 16.9896 19.3176 17.3066 19.1623 17.5116C19.0007 17.7167 18.777 17.7851 18.5719 17.7851C18.3793 17.7851 18.168 17.7167 18.0375 17.5924L18.112 17.2693C18.2177 17.3687 18.3855 17.4557 18.5843 17.4557C18.8826 17.4557 19.1063 17.232 19.1063 16.6478V16.3931H19.1001C19.0131 16.6106 18.8391 16.7783 18.5843 16.7783C18.1866 16.7783 17.9008 16.2936 17.9008 15.6536C17.9008 14.8705 18.255 14.4355 18.6278 14.4355C18.9075 14.4355 19.0566 14.6406 19.1312 14.8333H19.1374L19.1498 14.4853H19.4108C19.3984 14.6468 19.3984 14.8395 19.3984 15.1129V16.4552H19.3922ZM19.1001 15.3988C19.1001 15.3242 19.0939 15.2683 19.0815 15.2123C19.0255 14.9638 18.8888 14.7649 18.6713 14.7649C18.3917 14.7649 18.1928 15.1005 18.1928 15.6349C18.1928 16.0886 18.3544 16.4614 18.6713 16.4614C18.8515 16.4614 19.0193 16.2998 19.0753 16.0326C19.0939 15.9581 19.1001 15.8835 19.1001 15.8089V15.3988Z" fill="white"/>
<path d="M21.0075 16.2393C21.0075 16.4381 21.0137 16.6308 21.0323 16.7924H20.7713L20.7465 16.5003H20.7341C20.6471 16.6805 20.4731 16.8421 20.2431 16.8421C19.9138 16.8421 19.7522 16.5127 19.7522 16.1834C19.7522 15.6241 20.1002 15.3196 20.7216 15.3258V15.2761C20.7216 15.0896 20.6843 14.7416 20.355 14.7479C20.1996 14.7479 20.0443 14.81 19.9324 14.9219L19.8641 14.6422C19.9946 14.5241 20.1934 14.4434 20.3985 14.4434C20.8956 14.4434 21.0137 14.9219 21.0137 15.3817V16.2393H21.0075ZM20.7278 15.6179C20.4109 15.6054 20.0443 15.6924 20.0443 16.1336C20.0443 16.4071 20.1748 16.5314 20.3177 16.5314C20.529 16.5314 20.6657 16.3387 20.7154 16.1461C20.7278 16.0964 20.7278 16.0529 20.7278 16.0156V15.6179V15.6179Z" fill="white"/>
<path d="M22.1395 16.0518L21.9469 16.8348H21.3254L22.1395 13.7773H22.9349L23.7677 16.8348H23.1152L22.9101 16.0518H22.1395ZM22.8169 15.5298L22.6491 14.8773C22.5994 14.6971 22.5559 14.4671 22.5124 14.2869H22.5062C22.4689 14.4671 22.4254 14.7033 22.3819 14.8773L22.2203 15.5298H22.8169Z" fill="white"/>
<path d="M25.8681 16.1198C25.8681 16.4119 25.8743 16.648 25.8868 16.8344H25.3648L25.3399 16.5237H25.3275C25.2529 16.6604 25.0665 16.8842 24.7185 16.8842C24.3208 16.8842 24.0349 16.6045 24.0349 15.9147V14.6097H24.6377V15.8029C24.6377 16.126 24.7309 16.3187 24.9422 16.3187C25.11 16.3187 25.2094 16.1882 25.2467 16.0763C25.2653 16.0328 25.2716 15.9831 25.2716 15.9272V14.6035H25.8743V16.1198H25.8681Z" fill="white"/>
<path d="M26.3516 15.3435C26.3516 15.0142 26.3454 14.8029 26.333 14.6103H26.8488L26.8737 15.0204H26.8923C26.9917 14.691 27.2279 14.5605 27.4143 14.5605C27.4702 14.5605 27.4951 14.5668 27.5386 14.573V15.2255C27.4889 15.2193 27.4454 15.2068 27.377 15.2068C27.1533 15.2068 27.0042 15.3435 26.9669 15.5548C26.9607 15.5983 26.9544 15.6543 26.9544 15.7102V16.835H26.3516V15.3435V15.3435Z" fill="white"/>
<path d="M27.8617 15.3435C27.8617 15.0142 27.8554 14.8029 27.843 14.6103H28.3588L28.3837 15.0204H28.4023C28.5017 14.691 28.7379 14.5605 28.9243 14.5605C28.9802 14.5605 29.0051 14.5668 29.0486 14.573V15.2255C28.9989 15.2193 28.9554 15.2068 28.887 15.2068C28.6633 15.2068 28.5142 15.3435 28.4769 15.5548C28.4707 15.5983 28.4644 15.6543 28.4644 15.7102V16.835H27.8617V15.3435V15.3435Z" fill="white"/>
<path d="M29.8011 15.9479C29.8197 16.2338 30.0683 16.3705 30.3479 16.3705C30.553 16.3705 30.7208 16.3394 30.8824 16.2773L30.9631 16.7434C30.7643 16.8366 30.5219 16.8863 30.2609 16.8863C29.6022 16.8863 29.2231 16.4513 29.2231 15.7553C29.2231 15.1898 29.5276 14.5684 30.205 14.5684C30.8326 14.5684 31.0688 15.1276 31.0688 15.6745C31.0688 15.7926 31.0564 15.8982 31.0501 15.9479H29.8011ZM30.5157 15.4756C30.5157 15.3079 30.4536 15.0282 30.1739 15.0282C29.9191 15.0282 29.8135 15.2954 29.8011 15.4756H30.5157Z" fill="white"/>
<path d="M31.4354 15.3435C31.4354 15.0142 31.4292 14.8029 31.4167 14.6103H31.9325L31.9574 15.0204H31.976C32.0755 14.691 32.3116 14.5605 32.498 14.5605C32.554 14.5605 32.5788 14.5668 32.6223 14.573V15.2255C32.5726 15.2193 32.5291 15.2068 32.4608 15.2068C32.237 15.2068 32.0879 15.3435 32.0506 15.5548C32.0444 15.5983 32.0382 15.6543 32.0382 15.7102V16.835H31.4354V15.3435V15.3435Z" fill="white"/>
<path d="M34.5115 16.3009C34.5115 16.5122 34.5177 16.7173 34.5426 16.8353H34.0019L33.9646 16.6116H33.9522C33.8217 16.7856 33.6291 16.8851 33.3991 16.8851C33.0076 16.8851 32.7715 16.5557 32.7715 16.2015C32.7715 15.6235 33.2251 15.3501 33.9087 15.3501V15.3253C33.9087 15.201 33.8528 15.0332 33.5545 15.0332C33.3556 15.0332 33.1443 15.1078 33.0201 15.201L32.9082 14.7535C33.0449 14.6665 33.3121 14.5547 33.6601 14.5547C34.3064 14.5547 34.5115 14.9897 34.5115 15.5179V16.3009ZM33.9336 15.7851C33.6166 15.7851 33.3681 15.8721 33.3681 16.1331C33.3681 16.3133 33.4737 16.3941 33.6042 16.3941C33.7533 16.3941 33.8776 16.2823 33.9149 16.1393C33.9211 16.102 33.9273 16.0648 33.9273 16.0213V15.7851H33.9336Z" fill="white"/>
<path d="M4.91907 13.6836V19.873C4.91907 19.873 6.49129 20.5131 8.60415 20.5628C10.717 20.6125 42.2049 20.5628 42.2049 20.5628V19.8109H15.9246C15.9246 19.8109 9.09508 19.233 4.91907 13.6836Z" fill="#FBB040"/>
<path d="M8.60456 21.2539C7.13798 21.1607 4.98162 20.4336 4.98162 20.4336L4.94434 22.1115C7.0572 22.1612 42.1742 22.1115 42.1742 22.1115V21.3595H13.1969C13.1969 21.3595 10.0711 21.3471 8.60456 21.2539Z" fill="#ED1D24"/>
</g>
<defs>
<clipPath id="clip0_2014_3432">
<rect width="38.8966" height="14.5862" fill="white" transform="translate(4.45691 8.82031)"/>
</clipPath>
</defs>
</svg>
