<svg width="47" height="33" viewBox="0 0 47 33" fill="none" xmlns="http://www.w3.org/2000/svg">
<rect y="0.114258" width="46.6667" height="32" rx="4" fill="white"/>
<g clip-path="url(#clip0_2014_3387)">
<path d="M21.7686 14.883L21.8208 14.7631C22.0521 14.2291 21.8104 13.6075 21.282 13.375L20.4814 13.0216C19.9522 12.7883 19.3364 13.0322 19.1059 13.5662L18.9284 13.9754C18.7486 14.3919 18.8522 14.8773 19.187 15.1812L20.3875 16.2711C20.7223 16.575 20.8267 17.0612 20.646 17.4769L20.4686 17.8869C20.2373 18.4209 19.6214 18.664 19.093 18.4307L18.2925 18.0774C17.7633 17.844 17.5224 17.2224 17.7529 16.6892L17.8051 16.5693" stroke="#EF3842" stroke-linecap="round" stroke-linejoin="round"/>
<path d="M18.6672 18.3483L18.3082 19.1772" stroke="#EF3842" stroke-linecap="round" stroke-linejoin="round"/>
<path d="M21.2702 12.3336L20.9017 13.1861" stroke="#EF3842" stroke-linecap="round" stroke-linejoin="round"/>
<path d="M30.9439 12.9885H31.779C32.696 12.9885 33.4396 12.2381 33.4396 11.3127V9.24793C33.4396 8.32252 32.696 7.57214 31.779 7.57214H14.167C13.25 7.57214 12.5064 8.32252 12.5064 9.24793V11.3127C12.5064 12.2381 13.25 12.9885 14.167 12.9885H14.7901" stroke="#EF3842" stroke-linecap="round" stroke-linejoin="round"/>
<path d="M21.0945 22.2089H12.4013L18.231 9.59595H26.9242L21.0945 22.2089Z" stroke="#EF3842" stroke-linecap="round" stroke-linejoin="round"/>
<path d="M28.0477 11.3309L22.218 23.9439H13.5248" stroke="#EF3842" stroke-linecap="round" stroke-linejoin="round"/>
<path d="M29.2001 13.0962L23.3712 25.7091H14.678" stroke="#EF3842" stroke-linecap="round" stroke-linejoin="round"/>
</g>
<defs>
<clipPath id="clip0_2014_3387">
<rect width="21.9048" height="20" fill="white" transform="translate(12 6.11426)"/>
</clipPath>
</defs>
</svg>
