<svg width="47" height="33" viewBox="0 0 47 33" fill="none" xmlns="http://www.w3.org/2000/svg">
<rect width="47" height="32.2286" rx="4" fill="white"/>
<path fill-rule="evenodd" clip-rule="evenodd" d="M23.8357 23.0393C22.2356 24.4201 20.16 25.2537 17.8919 25.2537C12.8311 25.2537 8.72858 21.1035 8.72858 15.984C8.72858 10.8644 12.8311 6.71423 17.8919 6.71423C20.16 6.71423 22.2356 7.54782 23.8357 8.92865C25.4358 7.54782 27.5114 6.71423 29.7795 6.71423C34.8403 6.71423 38.9429 10.8644 38.9429 15.984C38.9429 21.1035 34.8403 25.2537 29.7795 25.2537C27.5114 25.2537 25.4358 24.4201 23.8357 23.0393Z" fill="#ED0006"/>
<path fill-rule="evenodd" clip-rule="evenodd" d="M23.8357 23.0393C25.806 21.339 27.0553 18.8091 27.0553 15.984C27.0553 13.1588 25.806 10.6289 23.8357 8.92865C25.4358 7.54781 27.5114 6.71423 29.7795 6.71423C34.8403 6.71423 38.9429 10.8644 38.9429 15.984C38.9429 21.1035 34.8403 25.2537 29.7795 25.2537C27.5114 25.2537 25.4358 24.4201 23.8357 23.0393Z" fill="#F9A000"/>
<path fill-rule="evenodd" clip-rule="evenodd" d="M23.8358 8.92871C25.806 10.6289 27.0553 13.1589 27.0553 15.984C27.0553 18.8091 25.806 21.339 23.8358 23.0393C21.8655 21.339 20.6162 18.8091 20.6162 15.984C20.6162 13.1589 21.8655 10.6289 23.8358 8.92871Z" fill="#FF5E00"/>
</svg>
