<svg width="48" height="33" viewBox="0 0 48 33" fill="none" xmlns="http://www.w3.org/2000/svg">
<rect x="0.666687" y="0.114258" width="46.6667" height="32" rx="4" fill="white"/>
<g clip-path="url(#clip0_2014_3390)">
<path fill-rule="evenodd" clip-rule="evenodd" d="M3.50806 7.27863C3.50806 6.57258 4.08229 5.995 4.78426 5.995H43.2173C43.9193 5.995 44.4936 6.57258 44.4936 7.27863V23.7114C44.4936 24.4175 43.9193 24.9951 43.2173 24.9951H4.78426C4.08229 24.9951 3.50806 24.4175 3.50806 23.7114V7.27863V7.27863Z" fill="#F0A929"/>
<path fill-rule="evenodd" clip-rule="evenodd" d="M3.50806 7.86108H44.4936V23.13H3.50806V7.86108V7.86108Z" fill="white"/>
<path fill-rule="evenodd" clip-rule="evenodd" d="M38.2427 11.8265C36.3675 11.8265 34.8389 13.3642 34.8389 15.2503C34.8389 17.1357 36.3675 18.6737 38.2427 18.6737C40.1175 18.6737 41.6461 17.1357 41.6461 15.2503C41.6461 13.3642 40.1175 11.8265 38.2427 11.8265Z" fill="#E21C2A"/>
<path fill-rule="evenodd" clip-rule="evenodd" d="M10.1866 11.8265C8.31122 11.8265 6.78241 13.3642 6.78241 15.2503C6.78241 17.1357 8.31122 18.6737 10.1866 18.6737C12.061 18.6737 13.5899 17.1357 13.5899 15.2503C13.5899 13.3642 12.061 11.8265 10.1866 11.8265Z" fill="#E21C2A"/>
<path fill-rule="evenodd" clip-rule="evenodd" d="M37.975 8.8133C34.8241 8.74048 33.3427 10.7727 31.1928 13.2792L29.1647 15.6433L32.3763 19.5105C33.1414 20.6986 31.6811 21.8779 30.775 20.7906L27.8058 17.228L24.9123 20.6017C23.9909 21.6756 22.5472 20.4759 23.3287 19.2989L26.4697 15.625L24.4119 13.1558L25.7357 11.5069L27.8285 14.0355L29.6325 11.9248C30.5177 10.8899 31.4204 9.51849 32.5904 8.8133H3.50806V22.1775H10.3076C13.4589 22.1775 14.8895 20.2824 16.9812 17.7269L18.9548 15.3157L15.6548 11.5246C14.8634 10.3543 16.2959 9.14187 17.2267 10.2077L20.2765 13.7008L23.0927 10.2606C23.989 9.16508 25.4595 10.3316 24.7054 11.5266L21.6493 15.2727L23.7633 17.6935L22.4313 19.28L20.3271 16.8929L18.5722 19.0444C17.7108 20.0996 16.8389 21.4454 15.6852 22.1775H44.4936V8.8133H37.975V8.8133ZM15.5642 15.2502C15.5642 18.2295 13.149 20.659 10.1871 20.659C7.22445 20.659 4.80921 18.2295 4.80921 15.2502C4.80921 12.2704 7.22445 9.84107 10.1871 9.84107C13.149 9.84107 15.5642 12.2704 15.5642 15.2502ZM38.2422 20.659C35.2801 20.659 32.8643 18.2295 32.8643 15.2502C32.8643 12.2704 35.2801 9.84107 38.2422 9.84107C41.2044 9.84107 43.6196 12.2704 43.6196 15.2502C43.6196 18.2295 41.2044 20.659 38.2422 20.659Z" fill="#E21C2A"/>
</g>
<defs>
<clipPath id="clip0_2014_3390">
<rect width="41" height="19" fill="white" transform="translate(3.50018 5.99902)"/>
</clipPath>
</defs>
</svg>
