<svg width="47" height="33" viewBox="0 0 47 33" fill="none" xmlns="http://www.w3.org/2000/svg">
<rect x="0.333374" y="0.114258" width="46.6667" height="32" rx="4" fill="white"/>
<g clip-path="url(#clip0_2014_3393)">
<path fill-rule="evenodd" clip-rule="evenodd" d="M15.6806 21.8821V10.4034H21.7266C22.9533 10.4034 23.3038 10.4911 24.2677 11.0168C25.2315 11.5425 25.4068 12.7693 25.4068 13.4703C25.4068 13.5386 25.4076 13.6086 25.4085 13.6804C25.4164 14.3446 25.4261 15.1585 24.7934 16.1866C24.1108 17.2959 22.9295 17.4911 22.3826 17.5815C22.368 17.5839 22.3537 17.5863 22.34 17.5885C21.8142 17.6762 19.2732 17.5885 19.2732 17.5885V21.8821H15.6806ZM19.2732 15.3103V12.7693C19.2732 12.7693 20.7627 12.6816 21.2009 12.7693C21.639 12.8569 21.9895 13.2074 22.0771 14.0836C22.1647 14.9599 21.2885 15.3103 20.938 15.3103H19.2732Z" fill="#323184"/>
<path d="M26.4144 10.5568V22.0135H36.1406V19.5381H30.0508V16.8875H35.5711V14.5655H30.0508V13.3826H36.1406V10.5568H26.4144Z" fill="#F3921A"/>
<path d="M37.455 14.215H38.7693V11.7616L41.1351 14.916V10.3596H37.455V14.215Z" fill="#323184"/>
<path d="M37.455 16.6685H38.7693V19.0343L41.1351 15.8799V21.8383H37.455V16.6685Z" fill="#323184"/>
<path d="M42.4565 11.4969V10.5541H42.8569C42.9577 10.5541 43.0313 10.5628 43.0769 10.5795C43.1224 10.5961 43.1592 10.6268 43.1864 10.6697C43.2135 10.7127 43.2276 10.7626 43.2276 10.8187C43.2276 10.8897 43.2065 10.9475 43.1654 10.9939C43.1242 11.0404 43.062 11.0693 42.9787 11.0807C43.0199 11.1044 43.0541 11.1315 43.0804 11.1596C43.1066 11.1876 43.1434 11.2393 43.189 11.3129L43.3038 11.4969H43.076L42.9384 11.2919C42.8893 11.2183 42.856 11.1727 42.8376 11.1534C42.8192 11.1341 42.8008 11.121 42.7807 11.114C42.7605 11.107 42.729 11.1035 42.6852 11.1035H42.6466V11.4969H42.4565ZM42.6466 10.9528H42.7877C42.8788 10.9528 42.9358 10.9493 42.9586 10.9414C42.9813 10.9335 42.9989 10.9203 43.012 10.9011C43.0252 10.8818 43.0313 10.859 43.0313 10.8301C43.0313 10.7985 43.0225 10.7731 43.0059 10.753C42.9892 10.7328 42.9647 10.7214 42.934 10.7162C42.9183 10.7144 42.8727 10.7127 42.7947 10.7127H42.6457V10.9519L42.6466 10.9528Z" fill="#323184"/>
<path d="M42.8806 11.9368C42.3785 11.9368 41.9693 11.5276 41.9693 11.0255C41.9693 10.5235 42.3785 10.1143 42.8806 10.1143C43.3827 10.1143 43.7919 10.5235 43.7919 11.0255C43.7919 11.5276 43.3827 11.9368 42.8806 11.9368ZM42.8806 10.2895C42.4749 10.2895 42.1445 10.6198 42.1445 11.0255C42.1445 11.4312 42.4749 11.7616 42.8806 11.7616C43.2863 11.7616 43.6166 11.4312 43.6166 11.0255C43.6166 10.6198 43.2863 10.2895 42.8806 10.2895Z" fill="#323184"/>
<path d="M4.33337 18.0705L7.66306 17.8953C7.79449 18.4972 7.97324 19.0992 8.37456 19.4111C8.77587 19.7231 8.98704 19.879 9.70906 19.879C10.5038 19.879 10.5765 19.7327 10.977 19.4383C11.2468 19.2333 11.3818 18.9573 11.3818 18.6129C11.3818 18.3781 11.3091 18.1835 11.1627 18.0293C11.0094 17.883 10.6668 17.5719 10.134 17.4466C7.65429 16.8964 6.60895 16.3934 5.94476 15.9386C5.0256 15.3077 4.82932 14.6059 4.82932 13.4826C4.82932 12.4696 5.31475 11.7941 6.1095 11.1036C6.90424 10.4149 7.96185 10.2449 9.63195 10.2449C11.302 10.2449 12.4035 10.5051 13.1763 11.0265C13.9491 11.5478 14.1621 12.6256 14.4539 13.6455L11.1242 13.8208C10.9997 13.366 10.9016 12.899 10.5555 12.6563C10.2094 12.4144 9.80982 12.2436 9.37171 12.2436C8.93359 12.2436 8.73556 12.3198 8.38507 12.5467C8.15199 12.708 8.03458 12.9174 8.03458 13.1741C8.03458 13.3941 8.13622 13.5816 8.34126 13.7358C8.61815 13.9417 8.96251 14.0556 10.5993 14.4306C12.2361 14.8048 13.2043 15.3516 13.8536 15.8939C14.495 16.4442 14.8166 17.2118 14.8166 18.1949C14.8166 19.2666 14.3715 20.1875 13.4821 20.9586C12.5919 21.7288 11.451 22.1143 9.70818 22.1143C8.12571 22.1143 6.69745 21.7919 5.77565 21.1452C4.85298 20.4994 4.61815 19.1789 4.33337 18.0705Z" fill="#323184"/>
</g>
<defs>
<clipPath id="clip0_2014_3393">
<rect width="39.4585" height="12" fill="white" transform="translate(4.33337 10.1143)"/>
</clipPath>
</defs>
</svg>
