<svg width="47" height="33" viewBox="0 0 47 33" fill="none" xmlns="http://www.w3.org/2000/svg">
<rect width="47" height="32.2286" rx="4" fill="white"/>
<path fill-rule="evenodd" clip-rule="evenodd" d="M14.2682 21.8325H11.4209L9.28578 13.6869C9.18444 13.3122 8.96926 12.981 8.65275 12.8248C7.86283 12.4325 6.99241 12.1203 6.04285 11.9628V11.6492H10.6296C11.2626 11.6492 11.7374 12.1203 11.8166 12.6674L12.9244 18.5431L15.7703 11.6492H18.5384L14.2682 21.8325ZM20.121 21.8325H17.432L19.6463 11.6492H22.3353L20.121 21.8325ZM25.8142 14.4703C25.8934 13.9218 26.3681 13.6082 26.922 13.6082C27.7925 13.5294 28.7406 13.6869 29.5319 14.0779L30.0067 11.8854C29.2154 11.5718 28.345 11.4143 27.5551 11.4143C24.9452 11.4143 23.0461 12.8249 23.0461 14.7825C23.0461 16.2718 24.3913 17.0538 25.3408 17.5249C26.3681 17.9946 26.7638 18.3082 26.6847 18.7779C26.6847 19.4825 25.8934 19.7961 25.1034 19.7961C24.1539 19.7961 23.2043 19.5613 22.3353 19.1689L21.8605 21.3628C22.8101 21.7538 23.8374 21.9113 24.7869 21.9113C27.7133 21.9887 29.5319 20.5795 29.5319 18.4643C29.5319 15.8007 25.8142 15.6446 25.8142 14.4703V14.4703ZM38.9428 21.8325L36.8077 11.6492H34.5143C34.0396 11.6492 33.5648 11.9628 33.4065 12.4325L29.4528 21.8325H32.221L32.7735 20.3446H36.1747L36.4912 21.8325H38.9428ZM34.91 14.3915L35.6999 18.2295H33.4857L34.91 14.3915Z" fill="#172B85"/>
</svg>
