<svg width="47" height="33" viewBox="0 0 47 33" fill="none" xmlns="http://www.w3.org/2000/svg">
<rect width="47" height="32.2286" rx="4" fill="white"/>
<g clip-path="url(#clip0_2014_3414)">
<path d="M26.547 15.9959C26.547 15.1157 26.1609 14.3379 24.8553 14.3379C24.1854 14.3379 23.6533 14.5242 23.3648 14.6874L23.5763 15.3936C23.8419 15.2309 24.2657 15.097 24.6658 15.097C25.3267 15.0961 25.435 15.461 25.435 15.6957V15.7522C23.9922 15.7499 23.0801 16.2365 23.0801 17.2275C23.0801 17.8331 23.5431 18.4008 24.3526 18.4008C24.8464 18.4008 25.2637 18.2062 25.513 17.8991H25.5373C25.5373 17.8991 25.7016 18.5703 26.6104 18.3138C26.5642 18.0326 26.547 17.7365 26.547 17.3765V15.9959V15.9959ZM25.4705 16.9254C25.4705 16.9965 25.4645 17.0703 25.443 17.1337C25.3599 17.4048 25.0733 17.6317 24.7166 17.6317C24.4156 17.6317 24.1794 17.4654 24.1794 17.1168C24.1794 16.5837 24.7825 16.437 25.4705 16.4406" fill="#0071CE"/>
<path d="M4.45691 13.1406C4.45691 13.1406 5.39936 16.9042 5.5492 17.5138C5.72565 18.2264 6.04167 18.4898 6.95379 18.3143L7.54288 15.9806C7.69178 15.4024 7.79307 14.9878 7.88924 14.3986H7.90556C7.97232 14.9937 8.06849 15.4024 8.19031 15.9824C8.19031 15.9824 8.43071 17.0427 8.55535 17.5981C8.67671 18.1535 9.0184 18.5039 9.91325 18.3143L11.3155 13.1406H10.1835L9.70226 15.3787C9.57482 16.0271 9.45905 16.5378 9.36896 17.132H9.35262C9.27141 16.5442 9.16825 16.0544 9.03568 15.4193L8.53715 13.1406H7.35616L6.82401 15.3609C6.6723 16.0389 6.5304 16.5825 6.44124 17.1579H6.42584C6.33388 16.618 6.20925 15.9305 6.07714 15.278C6.07714 15.278 5.76112 13.6883 5.64956 13.1406" fill="#0071CE"/>
<path d="M14.4701 15.9959C14.4701 15.1157 14.0831 14.3379 12.7775 14.3379C12.1095 14.3379 11.5765 14.5242 11.288 14.6874L11.4994 15.3936C11.7641 15.2309 12.1875 15.097 12.5889 15.097C13.2499 15.0961 13.3582 15.461 13.3582 15.6957V15.7522C11.9154 15.7499 11.0023 16.2365 11.0023 17.2275C11.0023 17.8331 11.4672 18.4008 12.2729 18.4008C12.7714 18.4008 13.185 18.2062 13.4343 17.8991H13.4595C13.4595 17.8991 13.6247 18.5703 14.5327 18.3138C14.486 18.0326 14.4701 17.7365 14.4701 17.3765V15.9959V15.9959ZM13.3928 16.9254C13.3928 16.9965 13.3867 17.0703 13.3662 17.1337C13.2821 17.4048 12.9955 17.6317 12.638 17.6317C12.3387 17.6317 12.1016 17.4654 12.1016 17.1168C12.1016 16.5837 12.7047 16.437 13.3928 16.4406" fill="#0071CE"/>
<path d="M15.0575 13.1406V18.3125H16.1348V17.2158V13.1406H15.0575Z" fill="#0071CE"/>
<path d="M29.8535 13.1406V16.9566C29.8535 17.4833 29.9548 17.8505 30.1728 18.0756C30.3642 18.2729 30.6774 18.4014 31.0504 18.4014C31.3706 18.4014 31.6838 18.3412 31.8318 18.2888L31.8187 17.4673C31.7081 17.4924 31.5816 17.5138 31.4079 17.5138C31.0401 17.5138 30.9187 17.2864 30.9187 16.8135V15.3527H31.857V14.3645H30.9187V13.1406" fill="#0071CE"/>
<path d="M27.0688 14.4264V18.3125H28.1826V16.3223C28.1826 16.2152 28.1896 16.1227 28.2069 16.0371C28.29 15.6174 28.6162 15.3518 29.0863 15.3518C29.2175 15.3518 29.3066 15.3659 29.4056 15.381V14.3622C29.3225 14.3476 29.266 14.3398 29.1638 14.3398C28.747 14.3398 28.2745 14.5982 28.0752 15.1609H28.0477V14.4264" fill="#0071CE"/>
<path d="M16.7605 14.4264V18.3125H17.8458V16.0316C17.8458 15.9245 17.8579 15.8152 17.8967 15.7163C17.9849 15.4853 18.2038 15.2179 18.5553 15.2179C18.9922 15.2179 19.1985 15.5778 19.1985 16.0972V18.3125H20.281V16.0043C20.281 15.9036 20.2955 15.7801 20.3258 15.6908C20.4127 15.4288 20.6498 15.2179 20.9775 15.2179C21.4191 15.2179 21.6329 15.5701 21.6329 16.1824V18.3125H22.7144V16.0211C22.7144 14.8173 22.0871 14.3398 21.3747 14.3398C21.0615 14.3398 20.8123 14.415 20.5882 14.5499C20.3987 14.6633 20.2325 14.8233 20.0836 15.0324H20.0673C19.8959 14.6141 19.4936 14.3398 18.9679 14.3398C18.2939 14.3398 17.9877 14.672 17.8075 14.9527H17.7912V14.4264" fill="#0071CE"/>
<path d="M37.6857 14.2528C37.8986 14.2528 38.0778 14.1443 38.1011 14.0049L38.3121 11.672C38.3121 11.441 38.0335 11.252 37.6857 11.252C37.3361 11.252 37.0593 11.441 37.0593 11.672L37.2721 14.0049C37.2945 14.1443 37.4728 14.2528 37.6857 14.2528Z" fill="#FFC220"/>
<path d="M36.3912 14.9836C36.4967 14.8013 36.4906 14.599 36.3767 14.5088L34.4068 13.1642C34.2019 13.0476 33.8952 13.1866 33.7197 13.4809C33.5447 13.7748 33.5801 14.1047 33.7809 14.219L35.9617 15.2059C36.1013 15.257 36.2838 15.1622 36.3912 14.9818" fill="#FFC220"/>
<path d="M38.98 14.9811C39.0915 15.1615 39.2741 15.2563 39.4099 15.208L41.5908 14.2184C41.7934 14.1017 41.8237 13.775 41.6524 13.4811C41.4773 13.1868 41.1688 13.0487 40.9643 13.1631L38.994 14.5063C38.8848 14.5979 38.8768 14.8011 38.9823 14.9829" fill="#FFC220"/>
<path d="M37.6857 17.166C37.8986 17.166 38.0778 17.2745 38.1011 17.4139L38.3121 19.7467C38.3121 19.9777 38.0335 20.165 37.6857 20.165C37.3361 20.165 37.0593 19.9777 37.0593 19.7467L37.2721 17.4139C37.2945 17.2745 37.4728 17.166 37.6857 17.166Z" fill="#FFC220"/>
<path d="M38.98 16.4385C39.0915 16.2576 39.2741 16.161 39.4099 16.2134L41.5908 17.2012C41.7934 17.3156 41.8237 17.645 41.6524 17.9394C41.4773 18.2314 41.1688 18.3704 40.9643 18.256L38.994 16.911C38.8848 16.8203 38.8768 16.618 38.9823 16.4385" fill="#FFC220"/>
<path d="M36.3912 16.4366C36.4967 16.6184 36.4906 16.8202 36.3767 16.9113L34.4068 18.2541C34.2019 18.3707 33.8952 18.2313 33.7197 17.9392C33.5447 17.6454 33.5801 17.3155 33.7809 17.2011L35.9617 16.2133C36.1013 16.1614 36.2838 16.257 36.3912 16.4366Z" fill="#FFC220"/>
<path d="M42.2289 18.0523H42.256C42.2929 18.0523 42.3078 18.0637 42.3121 18.0924C42.32 18.1243 42.3242 18.1457 42.3321 18.1548H42.4021C42.3961 18.148 42.3881 18.1307 42.3839 18.0906C42.376 18.0559 42.3578 18.0363 42.3321 18.0295V18.0231C42.3676 18.0154 42.3881 17.9921 42.3881 17.9634C42.3881 17.9375 42.376 17.9188 42.3638 17.9069C42.3405 17.896 42.3181 17.8873 42.2686 17.8873C42.2248 17.8873 42.1925 17.891 42.1669 17.8969V18.1548H42.2289V18.0523V18.0523ZM42.2308 17.9347L42.2626 17.9306C42.2999 17.9306 42.32 17.9475 42.32 17.9712C42.32 17.9976 42.2929 18.0099 42.2584 18.0099H42.2308V17.9347V17.9347ZM42.2705 17.7598C42.1174 17.7598 41.996 17.8764 41.996 18.0195C41.996 18.1662 42.1174 18.2828 42.2705 18.2828C42.4255 18.2828 42.5431 18.1662 42.5431 18.0195C42.5431 17.8764 42.4255 17.7598 42.2705 17.7598ZM42.2705 17.8122C42.3881 17.8122 42.4754 17.9051 42.4754 18.0195C42.4754 18.1348 42.3881 18.2304 42.2705 18.2286C42.1529 18.2286 42.0637 18.1348 42.0637 18.0195C42.0637 17.9051 42.1529 17.8122 42.2686 17.8122" fill="#FFC220"/>
</g>
<defs>
<clipPath id="clip0_2014_3414">
<rect width="38.0862" height="8.91379" fill="white" transform="translate(4.45691 11.252)"/>
</clipPath>
</defs>
</svg>
