<svg width="81" height="80" viewBox="0 0 81 80" fill="none" xmlns="http://www.w3.org/2000/svg">
<rect x="0.5" width="80" height="80" rx="40" fill="url(#paint0_linear_1_2174)"/>
<path d="M37.7418 41.2355L40.4968 39.1602L43.2043 41.2355C43.4893 41.4575 43.7743 41.4768 44.0593 41.2838C44.3443 41.0907 44.4393 40.8205 44.3443 40.4633L43.2993 37.0367L46.1968 34.7683C46.4533 34.5463 46.5198 34.2664 46.4153 33.9479C46.3108 33.6293 46.0733 33.4653 45.7218 33.4653H42.2543L41.1618 29.8938C41.0668 29.5753 40.8483 29.4015 40.4968 29.3822C40.1453 29.3629 39.9268 29.5367 39.8318 29.8938L38.6918 33.4653H35.2718C34.9203 33.4653 34.6923 33.6293 34.5783 33.9479C34.4643 34.2664 34.5403 34.5463 34.7968 34.7683L37.6943 37.0367L36.6493 40.4633C36.5543 40.8205 36.6493 41.0907 36.9343 41.2838C37.2193 41.4768 37.4853 41.4575 37.7418 41.2355ZM31.1868 59.9131C30.7118 60.0772 30.2748 60.0097 29.8758 59.7201C29.4768 59.4305 29.2773 59.0251 29.2773 58.5135V45.8687C27.8523 44.3533 26.8263 42.7027 26.2088 40.8977C25.5913 39.0927 25.2778 37.278 25.2778 35.444C25.2968 31.0714 26.7503 27.4035 29.6668 24.4402C32.5833 21.4768 36.1933 20 40.4968 20C44.8003 20 48.4103 21.4768 51.3268 24.4402C54.2433 27.4035 55.6968 31.0714 55.6968 35.444C55.6968 37.278 55.3833 39.0927 54.7658 40.8977C54.1483 42.7027 53.1223 44.3533 51.6973 45.8687V58.5135C51.6973 59.0251 51.4978 59.4305 51.0988 59.7201C50.6998 60.0097 50.2628 60.0772 49.7878 59.9131L40.4778 56.7278L31.1678 59.9131H31.1868ZM40.4968 47.9923C43.9453 47.9923 46.8713 46.7761 49.2653 44.3436C51.6593 41.9112 52.8563 38.9479 52.8563 35.4344C52.8563 31.9208 51.6593 28.9575 49.2653 26.5251C46.8713 24.0927 43.9548 22.8764 40.4968 22.8764C37.0388 22.8764 34.1223 24.0927 31.7283 26.5251C29.3343 28.9575 28.1373 31.9208 28.1373 35.4344C28.1373 38.9479 29.3343 41.9112 31.7283 44.3436C34.1223 46.7761 37.0388 47.9923 40.4968 47.9923Z" fill="url(#paint1_linear_1_2174)"/>
<defs>
<linearGradient id="paint0_linear_1_2174" x1="43.8816" y1="26.576" x2="-16.3132" y2="-14.1504" gradientUnits="userSpaceOnUse">
<stop offset="0.00208493" stop-color="#09091D"/>
<stop offset="1" stop-color="#EF473A"/>
</linearGradient>
<linearGradient id="paint1_linear_1_2174" x1="25.2966" y1="20" x2="55.6966" y2="60" gradientUnits="userSpaceOnUse">
<stop stop-color="#CB2D3E"/>
<stop offset="1" stop-color="#EF473A"/>
</linearGradient>
</defs>
</svg>
