<svg width="80" height="80" viewBox="0 0 80 80" fill="none" xmlns="http://www.w3.org/2000/svg">
<path d="M0 40C0 17.9086 17.9086 0 40 0C62.0914 0 80 17.9086 80 40C80 62.0914 62.0914 80 40 80C17.9086 80 0 62.0914 0 40Z" fill="url(#paint0_linear_1_2179)"/>
<path d="M30.7137 57C33.8967 59 37.199 60 40.6206 60L40.6298 60.0091C43.4092 60.0091 46.0236 59.4818 48.4728 58.4364C50.922 57.3909 53.0593 55.9546 54.8939 54.1364C56.7286 52.3182 58.1779 50.2 59.2328 47.7727C60.2877 45.3455 60.8198 42.7546 60.8198 40H58.0678C58.0678 42.3636 57.6092 44.6 56.6919 46.7091C55.7746 48.8182 54.527 50.6455 52.9492 52.2091C51.3715 53.7727 49.5277 55.0091 47.3995 55.9182C45.2714 56.8273 43.0148 57.2818 40.6298 57.2818C37.6577 57.2818 34.7315 56.3455 31.8419 54.4818C28.9524 52.6182 26.7234 50.5182 25.1639 48.1818H29.6129V45.4545H20.4398V54.5455H23.1917V50.1364C25.0263 52.7091 27.5306 55 30.7137 57Z" fill="url(#paint1_linear_1_2179)"/>
<path d="M29.9798 23L31.4475 25.3182V25.3091C32.7959 24.4909 34.2361 23.8545 35.7864 23.4C37.3366 22.9455 38.9511 22.7182 40.6298 22.7182C43.6294 22.7182 46.5648 23.6545 49.4359 25.5182C52.3071 27.3818 54.527 29.4818 56.0864 31.8182H51.6375V34.5455H60.8106V25.4545H58.0587V29.8636C56.224 27.2909 53.7198 25 50.5367 23C47.3537 21 44.0513 20 40.6298 20C38.6667 20 36.7954 20.2545 35.0067 20.7727C33.2179 21.2909 31.5392 22.0273 29.9798 23Z" fill="url(#paint2_linear_1_2179)"/>
<path d="M23.9714 34.6818L25.9436 39.2273L27.9159 34.6818L32.6859 32.5909L27.9159 30.5455L25.9436 26.2273L23.9714 30.5455L19.2014 32.5909L23.9714 34.6818Z" fill="url(#paint3_linear_1_2179)"/>
<path d="M39.673 52.6818C39.939 52.9273 40.2325 53.0455 40.5719 53.0455L40.5903 53.0637C40.9297 53.0637 41.2141 52.9364 41.4617 52.6727C41.7094 52.4091 41.8287 52.1182 41.8287 51.7818V50.6909C43.6633 50.4727 45.1126 49.8637 46.1675 48.8455C47.2224 47.8273 47.7545 46.5273 47.7545 44.9546C47.7545 43.3818 47.3142 42.1182 46.4427 41.1818C45.5713 40.2455 44.0577 39.4273 41.9204 38.7273C39.994 38.0909 38.6639 37.4546 37.9484 36.8364C37.2238 36.2091 36.866 35.4 36.866 34.4C36.866 33.4546 37.2146 32.7273 37.9026 32.1909C38.5906 31.6546 39.5354 31.3909 40.7279 31.3909C41.4617 31.3909 42.1222 31.5273 42.7001 31.8C43.278 32.0727 43.7825 32.4818 44.2137 33.0273C44.4246 33.2727 44.6907 33.4364 44.9934 33.5273C45.2961 33.6182 45.5896 33.5909 45.8648 33.4364C46.2042 33.2818 46.4335 33.0455 46.5345 32.7091C46.6354 32.3727 46.5803 32.0727 46.3693 31.8C45.8465 31.0727 45.2135 30.5 44.4613 30.0727C43.7091 29.6455 42.856 29.3909 41.9112 29.3V28.2091C41.9112 27.8727 41.792 27.5909 41.5443 27.3455C41.2966 27.1 41.0123 26.9818 40.6728 26.9818C40.3334 26.9818 40.0399 27.1 39.7739 27.3455C39.5079 27.5909 39.3794 27.8727 39.3794 28.2091V29.3C37.82 29.5091 36.5908 30.0727 35.6827 30.9818C34.7745 31.8909 34.3251 33.0273 34.3251 34.3909C34.3251 35.8727 34.7195 37.0546 35.4992 37.9364C36.2789 38.8182 37.7283 39.6455 39.8381 40.4364C42.0121 41.2546 43.4431 41.9637 44.1494 42.5727C44.8558 43.1818 45.2044 43.9364 45.2044 44.9364C45.2044 45.9364 44.7916 46.7818 43.966 47.4637C43.1404 48.1455 42.1314 48.4909 40.9389 48.4909C39.9298 48.4909 39.0033 48.2455 38.1594 47.7637C37.3155 47.2818 36.6642 46.6 36.2055 45.7182C36.0496 45.4727 35.8478 45.2909 35.5818 45.1455C35.3158 45 35.0497 44.9818 34.7745 45.0727C34.3709 45.2273 34.1049 45.4637 33.9673 45.7818C33.8297 46.1 33.8756 46.4273 34.0866 46.7637C34.7012 47.7637 35.4258 48.5727 36.2698 49.2C37.1137 49.8273 38.1136 50.2909 39.2785 50.5909V51.8182C39.2785 52.1546 39.407 52.4364 39.673 52.6818Z" fill="url(#paint4_linear_1_2179)"/>
<defs>
<linearGradient id="paint0_linear_1_2179" x1="43.3816" y1="26.576" x2="-16.8132" y2="-14.1504" gradientUnits="userSpaceOnUse">
<stop stop-color="#09091D"/>
<stop offset="1" stop-color="#29FFC6"/>
</linearGradient>
<linearGradient id="paint1_linear_1_2179" x1="19.2014" y1="20" x2="60.8014" y2="60" gradientUnits="userSpaceOnUse">
<stop stop-color="#0CEBEB"/>
<stop offset="0.555726" stop-color="#20E3B2"/>
<stop offset="1" stop-color="#29FFC6"/>
</linearGradient>
<linearGradient id="paint2_linear_1_2179" x1="19.2014" y1="20" x2="60.8014" y2="60" gradientUnits="userSpaceOnUse">
<stop stop-color="#0CEBEB"/>
<stop offset="0.555726" stop-color="#20E3B2"/>
<stop offset="1" stop-color="#29FFC6"/>
</linearGradient>
<linearGradient id="paint3_linear_1_2179" x1="19.2014" y1="20" x2="60.8014" y2="60" gradientUnits="userSpaceOnUse">
<stop stop-color="#0CEBEB"/>
<stop offset="0.555726" stop-color="#20E3B2"/>
<stop offset="1" stop-color="#29FFC6"/>
</linearGradient>
<linearGradient id="paint4_linear_1_2179" x1="19.2014" y1="20" x2="60.8014" y2="60" gradientUnits="userSpaceOnUse">
<stop stop-color="#0CEBEB"/>
<stop offset="0.555726" stop-color="#20E3B2"/>
<stop offset="1" stop-color="#29FFC6"/>
</linearGradient>
</defs>
</svg>
