<svg width="81" height="80" viewBox="0 0 81 80" fill="none" xmlns="http://www.w3.org/2000/svg">
<rect x="0.5" width="80" height="80" rx="40" fill="url(#paint0_linear_1_2169)"/>
<path d="M38.45 41.9144L34.5 37.9345C34.2 37.6322 33.83 37.4811 33.4 37.4811C32.97 37.4811 32.6 37.6322 32.3 37.9345C32 38.2368 31.85 38.6096 31.85 39.0428C31.85 39.4761 32 39.8489 32.3 40.1511L37.25 45.1385C37.55 45.4408 37.91 45.5919 38.33 45.5919C38.75 45.5919 39.11 45.4408 39.41 45.1385L48.66 35.8186C48.93 35.5466 49.06 35.194 49.06 34.7607C49.06 34.3275 48.93 33.9748 48.66 33.7028C48.39 33.4307 48.05 33.2997 47.63 33.2997C47.21 33.2997 46.87 33.4307 46.6 33.7028L38.45 41.9144ZM40.5 60C40.37 60 40.24 60 40.12 59.9698C40 59.9395 39.89 59.9295 39.79 59.8892C35.32 58.5491 31.66 55.7783 28.79 51.597C25.93 47.4358 24.5 42.8413 24.5 37.8338V27.9597C24.5 27.3249 24.68 26.7406 25.05 26.2166C25.42 25.6927 25.88 25.3199 26.45 25.0781L39.45 20.2015C39.82 20.0705 40.17 20 40.5 20C40.83 20 41.18 20.0705 41.55 20.2015L54.55 25.0882C55.12 25.3199 55.58 25.7028 55.95 26.2267C56.32 26.7506 56.5 27.3249 56.5 27.9698V37.8438C56.5 42.8514 55.07 47.4458 52.2 51.6272C49.33 55.8086 45.67 58.5693 41.2 59.9194L40.5 60.0201V60Z" fill="url(#paint1_linear_1_2169)"/>
<defs>
<linearGradient id="paint0_linear_1_2169" x1="43.8816" y1="26.576" x2="-16.3132" y2="-14.1504" gradientUnits="userSpaceOnUse">
<stop offset="0.00208493" stop-color="#09091D"/>
<stop offset="1" stop-color="#E4C900"/>
</linearGradient>
<linearGradient id="paint1_linear_1_2169" x1="24.5" y1="20" x2="56.5" y2="60" gradientUnits="userSpaceOnUse">
<stop stop-color="#88B605"/>
<stop offset="1" stop-color="#E4C900"/>
</linearGradient>
</defs>
</svg>
