<svg width="81" height="80" viewBox="0 0 81 80" fill="none" xmlns="http://www.w3.org/2000/svg">
<rect x="0.5" width="80" height="80" rx="40" fill="url(#paint0_linear_1_2164)"/>
<path d="M43.3498 60L42.8322 54.5H40.7616C35.8232 54.5 31.6199 52.82 28.131 49.45C24.6421 46.08 22.9028 42.02 22.9028 37.25C22.9028 32.48 24.6524 28.42 28.1621 25.05C31.6614 21.68 35.8957 20 40.8651 20C43.3188 20 45.5861 20.43 47.6774 21.28C49.7687 22.13 51.5908 23.32 53.1437 24.86C54.6967 26.39 55.9183 28.2 56.7983 30.29C57.6783 32.38 58.1235 34.65 58.1235 37.12C58.1235 41.59 56.819 45.9 54.2101 50.05C51.6011 54.2 47.988 57.53 43.3602 60.03L43.3498 60ZM40.8651 48.85C41.4138 48.85 41.8797 48.67 42.2628 48.3C42.6458 47.93 42.8322 47.48 42.8322 46.95C42.8322 46.42 42.6458 45.97 42.2628 45.6C41.8797 45.23 41.4138 45.05 40.8651 45.05C40.3164 45.05 39.8505 45.23 39.4675 45.6C39.0844 45.97 38.8981 46.42 38.8981 46.95C38.8981 47.48 39.0844 47.93 39.4675 48.3C39.8505 48.67 40.3164 48.85 40.8651 48.85ZM40.7616 42.05C41.1032 42.05 41.4138 41.93 41.6727 41.7C41.9315 41.47 42.0971 41.17 42.1696 40.8C42.2731 40.33 42.4905 39.88 42.8218 39.45C43.1531 39.02 43.6604 38.47 44.3541 37.8C45.2858 36.9 45.9381 36.07 46.3211 35.32C46.7042 34.57 46.8905 33.76 46.8905 32.89C46.8905 31.39 46.3625 30.16 45.3065 29.19C44.2505 28.22 42.8425 27.74 41.0825 27.74C39.8712 27.74 38.7635 28 37.7385 28.52C36.7136 29.04 35.8957 29.76 35.2745 30.7C35.0675 31 35.0364 31.31 35.171 31.63C35.3056 31.95 35.5644 32.19 35.9475 32.36C36.227 32.46 36.5169 32.46 36.8275 32.36C37.1381 32.26 37.3969 32.08 37.6039 31.81C37.987 31.28 38.4632 30.88 39.0327 30.63C39.6021 30.38 40.2336 30.25 40.9272 30.25C41.9625 30.25 42.7701 30.49 43.3602 30.98C43.9503 31.46 44.2402 32.11 44.2402 32.91C44.2402 33.54 44.0538 34.19 43.6708 34.84C43.2877 35.49 42.6148 36.3 41.652 37.27C40.9272 38 40.4096 38.61 40.099 39.1C39.7884 39.59 39.6021 40.16 39.5296 40.83C39.4985 41.16 39.6021 41.46 39.8402 41.71C40.0783 41.96 40.3889 42.09 40.772 42.09L40.7616 42.05ZM45.9381 51.5V54.6C48.7644 52.3 50.9903 49.59 52.595 46.47C54.1997 43.35 55.0072 40.23 55.0072 37.09C55.0072 32.96 53.6717 29.57 50.9903 26.94C48.3089 24.31 44.9442 22.99 40.8651 22.99C36.7861 22.99 33.2143 24.38 30.3258 27.17C27.4477 29.95 25.9983 33.31 25.9983 37.25C25.9983 41.19 27.4374 44.54 30.3258 47.33C33.2039 50.11 36.6825 51.51 40.7616 51.51H45.9381V51.5Z" fill="url(#paint1_linear_1_2164)"/>
<defs>
<linearGradient id="paint0_linear_1_2164" x1="43.8816" y1="26.576" x2="-16.3132" y2="-14.1504" gradientUnits="userSpaceOnUse">
<stop offset="0.00208493" stop-color="#09091D"/>
<stop offset="1" stop-color="#36D1DC"/>
</linearGradient>
<linearGradient id="paint1_linear_1_2164" x1="22.9028" y1="20" x2="58.1028" y2="60" gradientUnits="userSpaceOnUse">
<stop stop-color="#5B86E5"/>
<stop offset="1" stop-color="#36D1DC"/>
</linearGradient>
</defs>
</svg>
