<svg width="81" height="80" viewBox="0 0 81 80" fill="none" xmlns="http://www.w3.org/2000/svg">
<rect x="0.5" width="80" height="80" rx="40" fill="url(#paint0_linear_1_2184)"/>
<path d="M28.6048 59.8376C28.2743 60.0541 27.9438 60.0541 27.6133 59.8376C27.2828 59.6211 27.1727 59.2963 27.2828 58.8633L31.5793 44.7903L20.2321 36.7794C19.9016 36.5629 19.7915 36.2382 19.9016 35.9134C20.0118 35.5886 20.3423 35.3721 20.6728 35.3721H34.8843L39.4012 20.6495C39.5113 20.433 39.6215 20.3248 39.7317 20.2165C39.8418 20.1083 40.0622 20 40.1723 20C40.3927 20 40.5028 20.1083 40.613 20.2165C40.7232 20.3248 40.8333 20.433 40.9435 20.6495L45.4603 35.3721H59.6718C60.1125 35.3721 60.3328 35.5886 60.443 35.9134C60.5532 36.2382 60.443 36.5629 60.1125 36.7794L48.6552 44.7903L53.0618 58.8633C53.172 59.2963 53.0618 59.6211 52.7313 59.8376C52.4008 60.0541 52.0703 60.0541 51.7398 59.8376L40.1723 51.1773L28.6048 59.8376ZM59.782 59.7294L57.3583 57.7808L53.833 46.5223L62.3158 40.5683H65.2904C65.731 40.5683 65.9514 40.7848 66.0615 41.1096C66.1717 41.5426 66.0615 41.7591 65.731 41.9756L57.5787 47.9296L60.9938 58.9716C61.104 59.4046 60.9939 59.6211 60.6633 59.8376C60.3328 60.0541 60.1125 60.0541 59.782 59.7294ZM48.7653 31.0419L47.1128 25.521L48.6552 20.6495C48.7653 20.433 48.8755 20.3248 48.9857 20.2165C49.0958 20.1083 49.3162 20 49.4263 20C49.5365 20 49.7568 20.1083 49.9772 20.2165C50.0873 20.3248 50.1975 20.433 50.3077 20.6495L53.5025 31.0419H48.7653ZM20.2321 59.8376C19.9016 59.6211 19.7915 59.2963 19.9016 58.9716L23.427 47.9296L15.2746 42.0839C14.9441 41.8674 14.834 41.5426 14.9441 41.2179C15.0543 40.8931 15.3848 40.6766 15.7153 40.6766H18.8L27.2828 46.6306L23.7575 57.889L21.2236 59.7294C20.8931 60.0541 20.5626 60.0541 20.2321 59.8376ZM27.6133 31.0419L30.8082 20.6495C30.9183 20.433 31.0285 20.3248 31.1387 20.2165C31.2488 20.1083 31.4692 20 31.5793 20C31.7997 20 31.9098 20.1083 32.02 20.2165C32.1302 20.3248 32.2403 20.433 32.3505 20.6495L33.8928 25.521L32.2403 31.0419H27.6133Z" fill="url(#paint1_linear_1_2184)"/>
<defs>
<linearGradient id="paint0_linear_1_2184" x1="43.8816" y1="26.576" x2="-16.3132" y2="-14.1504" gradientUnits="userSpaceOnUse">
<stop offset="0.00208493" stop-color="#09091D"/>
<stop offset="1" stop-color="#EDDE5D"/>
</linearGradient>
<linearGradient id="paint1_linear_1_2184" x1="14.9028" y1="20" x2="66.1028" y2="60" gradientUnits="userSpaceOnUse">
<stop stop-color="#F09819"/>
<stop offset="1" stop-color="#EDDE5D"/>
</linearGradient>
</defs>
</svg>
