<svg width="18" height="18" viewBox="0 0 18 18" fill="none" xmlns="http://www.w3.org/2000/svg">
<path d="M8.54992 0C7.22091 0.000822265 5.91036 0.311258 4.7222 0.906691C3.53405 1.50212 2.50095 2.36618 1.70483 3.43034C0.908712 4.49451 0.371468 5.72951 0.135699 7.03743C-0.10007 8.34535 -0.0278805 9.69021 0.346543 10.9654C0.39646 11.1326 0.499127 11.2791 0.639209 11.3831C0.77929 11.4871 0.949266 11.5431 1.12375 11.5425H1.22763C0.737412 10.3413 0.5501 9.03804 0.682195 7.74744C0.814289 6.45683 1.26174 5.21851 1.98512 4.14155C2.70851 3.06459 3.68563 2.18204 4.83043 1.57165C5.97522 0.961252 7.25256 0.641738 8.54992 0.64125C12.9177 0.64125 16.4587 4.18223 16.4587 8.55C16.4587 12.9178 12.9177 16.4587 8.54992 16.4587V17.1C13.2721 17.1 17.1 13.2722 17.1 8.55C17.1 3.82783 13.2721 0 8.54992 0Z" fill="#2D2A26"/>
<path d="M8.54922 18C9.2948 18 9.89922 17.4963 9.89922 16.875C9.89922 16.2537 9.2948 15.75 8.54922 15.75C7.80363 15.75 7.19922 16.2537 7.19922 16.875C7.19922 17.4963 7.80363 18 8.54922 18Z" fill="#2D2A26"/>
<path d="M15.9383 5.84961C15.7692 5.84961 15.6071 5.91869 15.4875 6.04166C15.3679 6.16463 15.3008 6.33142 15.3008 6.50532V10.5939C15.3008 10.7678 15.3679 10.9346 15.4875 11.0576C15.6071 11.1805 15.7692 11.2496 15.9383 11.2496H16.6508V5.84961H15.9383Z" fill="#2D2A26"/>
<path d="M1.16172 5.84961H0.449219V11.1146C0.449219 11.1914 0.462798 11.2675 0.489182 11.3385C0.515566 11.4095 0.554237 11.4739 0.602988 11.5283C0.651739 11.5826 0.709614 11.6257 0.77331 11.6551C0.837006 11.6845 0.905275 11.6996 0.974219 11.6996H1.16172C1.33079 11.6996 1.49294 11.6248 1.6125 11.4916C1.73205 11.3583 1.79922 11.1777 1.79922 10.9893V6.55997C1.79922 6.37157 1.73205 6.19089 1.6125 6.05767C1.49294 5.92445 1.33079 5.84961 1.16172 5.84961Z" fill="#2D2A26"/>
<path d="M8.5451 3.15039C5.59053 3.15296 3.16814 5.63588 3.14861 8.68403C3.13951 9.85501 3.48982 10.9989 4.14939 11.952C4.18639 12.0053 4.21058 12.0669 4.21997 12.1317C4.22936 12.1965 4.22368 12.2627 4.2034 12.3248L3.31478 15.0276C3.30174 15.067 3.30055 15.1095 3.31136 15.1495C3.32217 15.1896 3.34448 15.2254 3.37535 15.2521C3.40623 15.2789 3.44423 15.2953 3.48435 15.2994C3.52448 15.3035 3.56486 15.2949 3.60019 15.2749L6.08864 13.8671C6.14175 13.837 6.20082 13.8198 6.26136 13.8167C6.3219 13.8137 6.38232 13.8249 6.43802 13.8496C7.17504 14.1722 7.97239 14.3218 8.77234 14.2874C9.57229 14.2531 10.3548 14.0357 11.0633 13.651C11.7718 13.2663 12.3885 12.724 12.8688 12.0632C13.3491 11.4024 13.6809 10.6397 13.8403 9.83038C13.9997 9.02103 13.9827 8.18524 13.7904 7.38352C13.5981 6.5818 13.2355 5.83421 12.7287 5.19486C12.2218 4.5555 11.5836 4.04039 10.86 3.68679C10.1365 3.3332 9.34575 3.14998 8.5451 3.15039ZM11.665 11.871C10.8683 12.7146 9.78097 13.1997 8.63941 13.2209H8.54843C7.96339 13.2218 7.38425 13.1004 6.84598 12.8639C6.64559 12.7759 6.42846 12.736 6.21094 12.747C5.99341 12.7581 5.78115 12.8199 5.59012 12.9278L4.99272 13.2659L5.18881 12.6694C5.26176 12.4463 5.28241 12.2086 5.24904 11.9758C5.21568 11.7429 5.12926 11.5215 4.99688 11.3298C4.46306 10.5607 4.17957 9.63674 4.1872 8.69089C4.20298 6.22854 6.15802 4.22387 8.54552 4.22172C9.40491 4.22084 10.2454 4.48183 10.9615 4.97193C11.6776 5.46204 12.2374 6.15943 12.5707 6.97656C12.9039 7.79368 12.9957 8.69414 12.8346 9.56491C12.6735 10.4357 12.2666 11.238 11.665 11.871Z" fill="#2D2A26"/>
</svg>
