<svg width="181" height="76" viewBox="0 0 181 76" fill="none" xmlns="http://www.w3.org/2000/svg">
<g clip-path="url(#clip0_2001_2388)">
<path d="M86.8773 36.3205H93.0206L102.802 49.1185V36.3205H109.323V60.5185H103.548L93.3936 47.2373V60.5185H86.8773V36.3205Z" fill="#F5333F"/>
<path d="M112.605 36.3204H122.796C128.806 36.3204 132.674 39.4683 132.674 44.8305V44.8962C132.674 50.6056 128.363 53.6174 122.455 53.6174H119.195V60.5184H112.605V36.3204ZM122.317 48.3584C124.661 48.3584 126.089 47.1105 126.089 45.2105V45.1401C126.089 43.0665 124.661 41.9594 122.285 41.9594H119.195V48.3584H122.317Z" fill="white"/>
<path d="M134.339 48.495V48.4293C134.339 41.4721 139.501 35.833 146.381 35.833C153.261 35.833 158.355 41.4064 158.355 48.359V48.4293C158.355 55.3819 153.192 61.021 146.312 61.021C139.432 61.021 134.339 55.4523 134.339 48.495ZM152.05 48.495V48.4293C152.05 44.9343 149.725 41.8896 146.317 41.8896C142.909 41.8896 140.68 44.8639 140.68 48.359V48.4293C140.68 51.9197 143.006 54.9644 146.381 54.9644C149.757 54.9644 152.05 51.9901 152.05 48.495Z" fill="white"/>
<path d="M158.175 36.3205V42.1988H165.005V60.5326H171.595V42.1988H179.202V36.3205H158.175Z" fill="white"/>
<path d="M174.528 57.9236H175.283L175.896 58.9366L176.508 57.9236H177.263V60.5405H176.554V59.0397L175.909 60.048L175.256 59.0304V60.5264H174.528V57.9236Z" fill="white"/>
<path d="M177.756 57.9243H178.971C179.122 57.9111 179.274 57.9296 179.417 57.9789C179.561 58.0281 179.692 58.1069 179.805 58.2104C179.883 58.29 179.943 58.3854 179.983 58.4904C180.023 58.5954 180.04 58.7077 180.035 58.82C180.04 58.9939 179.992 59.1652 179.897 59.3098C179.802 59.4544 179.665 59.5652 179.505 59.6267L180.118 60.5365H179.298L178.778 59.7439H178.465V60.5365H177.756V57.9243ZM178.934 59.1812C179.178 59.1812 179.317 59.0639 179.317 58.8716C179.317 58.6653 179.174 58.5621 178.934 58.5621H178.474V59.1905L178.934 59.1812Z" fill="white"/>
<path d="M79.9452 36.3205C78.9412 38.2533 77.9527 40.1924 76.9794 42.1378V60.5185H83.6017V36.3205H79.9452Z" fill="#F5333F"/>
<path d="M102.462 0.112886C102.047 -0.895757 98.6396 1.05116 98.1284 1.31387C95.8314 2.5674 93.6902 4.09673 91.7503 5.86918C87.7655 9.50399 84.1435 13.5316 80.9374 17.8931C74.4902 26.4033 69.1252 35.664 64.3128 45.2015C62.4201 48.9546 60.6701 52.7077 59.0215 56.5828C58.5057 57.7838 58.1004 59.1818 57.3867 60.2889C56.9261 61.0396 56.963 59.7917 57.0275 59.3507C57.7781 53.9368 58.782 48.5606 59.7905 43.1749C60.5366 39.2294 63.0878 27.7638 63.5714 25.9764C63.8108 25.1038 64.2253 24.1467 64.1148 23.2272C64.0219 22.6613 63.7851 22.1301 63.428 21.6864C63.0708 21.2428 62.6058 20.9022 62.0793 20.6986C59.6155 19.7603 57.9577 22.181 56.5531 23.8277C54.7801 25.9154 53.1315 28.1062 51.5565 30.3534C48.379 34.8993 45.4547 39.6376 42.7331 44.4791C41.6002 46.487 40.5963 48.5606 39.5094 50.5778C39.0489 51.4598 38.897 50.7467 39.0858 50.1087C39.4081 48.9968 39.6706 47.8615 39.9654 46.7356C41.4206 41.242 43.1015 35.8141 44.5429 30.3159C45.7356 25.7605 46.9974 21.0035 47.2369 16.2699C47.329 14.3934 47.2369 12.4605 46.4586 10.7435C46.0484 9.8542 45.4572 9.06388 44.7244 8.42493C43.9916 7.78598 43.1339 7.313 42.2081 7.03733C38.0634 5.70029 33.4583 7.50647 29.7972 9.43931C25.2749 11.8507 21.2684 15.144 17.5843 18.7188C13.7501 22.3802 10.2539 26.3925 7.13983 30.7052C4.20635 34.8336 1.29129 39.4593 0.411701 44.5588C-0.00736767 46.9889 -0.00736825 49.7522 1.23142 51.9524C1.46168 52.3559 2.35508 53.9181 3.04124 53.5991C3.40505 53.4255 3.20243 52.9048 3.06888 52.6373C2.76362 52.1292 2.52665 51.5817 2.36429 51.0094C1.82548 48.448 2.79717 45.7598 3.92543 43.5033C5.09006 41.2613 6.5207 39.1737 8.1852 37.2872C11.6655 33.3154 15.4624 29.6436 19.5369 26.3094C23.4061 22.9653 27.6308 20.073 32.132 17.6867C33.3155 17.0815 34.5911 16.3356 35.9405 16.2371C38.1463 16.0729 37.5707 18.4373 37.2667 19.8776C36.0878 25.4275 34.4254 30.8741 32.9747 36.3536C31.5241 41.8331 30.0551 47.4346 29.3321 53.1018C28.7933 57.324 28.3696 62.4376 30.2991 66.4018C30.6712 67.2346 31.2224 67.9715 31.9119 68.5579C32.6015 69.1442 33.4117 69.5649 34.2826 69.7889C35.2651 70.0042 36.2856 69.9571 37.245 69.6521C38.2044 69.3472 39.0701 68.7947 39.7581 68.0485C40.4876 67.1541 41.0383 66.1229 41.3791 65.0132C41.8397 63.7183 42.3739 62.4376 42.885 61.1522C43.9442 58.4875 45.0187 55.829 46.1086 53.1769C48.25 47.9601 50.4052 42.7433 52.8276 37.6531C54.0295 35.1339 55.2867 32.6287 56.6775 30.208C57.3728 28.9976 58.1281 27.8247 58.9017 26.666C59.1182 26.3376 60.2833 24.1655 60.7438 24.3438C61.2043 24.522 60.2418 27.2383 60.1497 27.6277L59.1228 31.7092C58.4182 34.524 57.7412 37.2919 57.009 40.0786C55.6091 45.6003 54.1446 51.1361 52.9611 56.7657C52.3947 59.5149 51.8513 62.2922 51.5381 65.0835C51.3718 66.4686 51.2995 67.8636 51.3217 69.2588C51.3447 70.3895 51.4276 71.4732 52.017 72.4583C52.5379 73.3116 53.302 73.9826 54.2072 74.3817C55.1124 74.7807 56.1156 74.8888 57.0827 74.6914C59.505 74.1848 60.3892 72.1534 61.2964 70.0704C65.8693 59.543 70.9396 49.2408 76.1112 39.0089C81.0341 29.2697 86.1688 19.5726 92.5055 10.6966C93.9829 8.58644 95.5984 6.58024 97.341 4.69165C98.218 3.74008 99.1698 2.86301 100.187 2.06918C100.726 1.65165 101.292 1.27165 101.868 0.910415C102.149 0.750909 102.632 0.535108 102.462 0.112886Z" fill="#EF3842"/>
</g>
<defs>
<clipPath id="clip0_2001_2388">
<rect width="180.061" height="76" fill="white"/>
</clipPath>
</defs>
</svg>
